<?xml version="1.0" standalone="no"?>
<!DOCTYPE svg PUBLIC "-//W3C//DTD SVG 1.1//EN" "http://www.w3.org/Graphics/SVG/1.1/DTD/svg11.dtd" >
<svg xmlns="http://www.w3.org/2000/svg">
<metadata>
Created by FontPrep 20130207 at Mon Jul 10 22:08:35 2017
 By Eunjoo Hong
Copyright (c) 2009 by The Entente (AS &#38; EH). All rights reserved. wf-rip
</metadata>
<defs>
<font id="e84b7a8b5afb81f260ea81bfcd555715" horiz-adv-x='1024' >
  <font-face 
    font-family="Apercu-Light"
    font-weight="300"
    font-stretch="normal"
    units-per-em="2048"
    panose-1="2 0 5 6 3 0 0 2 0 4"
    ascent="1638"
    descent="-410"
    x-height="1143"
    cap-height="1595"
    bbox="-172 -584 5548.04 2167"
    underline-thickness="102"
    underline-position="-102"
    unicode-range="U+0020-FB02"
  />
<missing-glyph horiz-adv-x="1431" 
d="M1051 1460h-670v-1349h670v1349zM233 -25v1620h965v-1620h-965z" />
    <glyph glyph-name=".notdef" horiz-adv-x="1431" 
d="M1051 1460h-670v-1349h670v1349zM233 -25v1620h965v-1620h-965z" />
    <glyph glyph-name=".null" horiz-adv-x="0" 
 />
    <glyph glyph-name="nonmarkingreturn" horiz-adv-x="770" 
 />
    <glyph glyph-name="space" unicode=" " horiz-adv-x="583" 
 />
    <glyph glyph-name="exclam" unicode="!" horiz-adv-x="751" 
d="M288 8q-34 37 -34 90t35 90q37 37 93 37t91 -36t35 -92t-34 -90t-92 -35q-60 -1 -94 36zM285 1595h194l-51 -1194h-92z" />
    <glyph glyph-name="quotedbl" unicode="&#x22;" horiz-adv-x="966" 
d="M600 1085l-49 529h207l-49 -529h-109zM260 1085l-49 529h205l-47 -529h-109z" />
    <glyph glyph-name="numbersign" unicode="#" horiz-adv-x="1658" 
d="M682 975l-76 -379h371l76 379h-371zM270 975v125h312l98 495h129l-98 -495h368l101 495h131l-103 -495h273v-125h-299l-76 -379h283v-125h-310l-100 -496h-129l98 496h-366l-103 -496h-129l101 496h-273v125h299l76 379h-283z" />
    <glyph glyph-name="dollar" unicode="$" horiz-adv-x="1171" 
d="M573 1470q-103 0 -162 -68t-60 -172t72 -178t158 -111q85 -38 206 -99q268 -136 268 -410q0 -194 -109 -322t-284 -153v-190h-140v190q-168 23 -278 139t-148 299l133 78q49 -174 130 -273q81 -100 227 -100t227 84q82 84 82 242q0 196 -248 313q-208 93 -287 157
q-166 134 -163 321q0 159 94 267t231 126v194h140v-196q159 -22 245 -148q29 -41 60 -96l-125 -78q-96 184 -269 184z" />
    <glyph glyph-name="percent" unicode="%" horiz-adv-x="1953" 
d="M1554 1651l99 -76l-1256 -1655l-96 76zM1448 82q108 0 174 70q64 70 64 175t-66 176t-172 71t-176 -70q-64 -70 -64 -178t66 -176t174 -68zM1446 -43q-160 -1 -261 107t-101 262t102 264q104 110 260 108q156 0 260 -110t104 -264t-102 -260t-262 -107zM268 1244
q0 -110 66 -178t174 -69q108 0 172 69q66 68 66 178t-66 175q-63 70 -173 70t-173 -70q-66 -65 -66 -175zM507 1614q157 0 260 -109t103 -265t-102 -261q-102 -106 -260 -106t-262 106q-102 109 -102 263t102 264q104 108 261 108z" />
    <glyph glyph-name="ampersand" unicode="&#x26;" horiz-adv-x="1519" 
d="M704 1489q-100 0 -154 -59q-54 -60 -54 -168t133 -279q147 71 215 137t67 158q0 92 -53 152q-54 59 -154 59zM326 420q0 -143 90 -236q90 -94 239 -94q219 0 359 186l-426 543q-262 -141 -262 -399zM655 -43q-213 0 -343 124q-130 126 -130 343q0 250 198 417
q58 48 124 83q-152 211 -152 358t99 239q99 93 254 93t253 -91q97 -91 97 -233q0 -238 -342 -411l377 -484q60 105 122 295l101 -115q-77 -202 -133 -296l239 -304h-168l-149 191q-171 -209 -447 -209z" />
    <glyph glyph-name="quotesingle" unicode="'" horiz-adv-x="626" 
d="M260 1085l-49 529h205l-47 -529h-109z" />
    <glyph glyph-name="parenleft" unicode="(" horiz-adv-x="651" 
d="M164 784q0 516 252 926h153q-245 -398 -245 -926t245 -923h-153q-252 407 -252 923z" />
    <glyph glyph-name="parenright" unicode=")" horiz-adv-x="651" 
d="M485 784q0 -526 -252 -923h-151q244 393 244 924t-244 925h151q252 -400 252 -926z" />
    <glyph glyph-name="asterisk" unicode="*" horiz-adv-x="1138" 
d="M635 1614v-338l321 106l41 -125l-321 -108l198 -268l-106 -80l-199 272l-198 -272l-107 80l199 268l-322 108l41 125l322 -106v338h131z" />
    <glyph glyph-name="plus" unicode="+" horiz-adv-x="1261" 
d="M1108 772v-131h-410v-410h-129v410h-409v131h409v408h129v-408h410z" />
    <glyph glyph-name="comma" unicode="," horiz-adv-x="645" 
d="M154 -203l114 381h213l-221 -381h-106z" />
    <glyph glyph-name="hyphen" unicode="-" horiz-adv-x="1089" 
d="M164 645v129h762v-129h-762z" />
    <glyph glyph-name="period" unicode="." horiz-adv-x="657" 
d="M211 87q0 52 34 86t84 34t84 -34q33 -34 33 -84t-34 -84t-83 -34q-50 0 -84 32t-34 84z" />
    <glyph glyph-name="slash" unicode="/" horiz-adv-x="1220" 
d="M1049 1710h151l-1007 -1849h-154z" />
    <glyph glyph-name="zero" unicode="0" horiz-adv-x="1425" 
d="M712 1485q-192 0 -300 -193t-109 -507q0 -315 109 -507q110 -192 302 -192t300 193t109 507q0 314 -109 506q-110 193 -302 193zM712 1614q276 0 414 -225q144 -219 144 -603t-142 -606q-142 -223 -416 -223q-273 0 -415 221q-141 222 -141 608t141 603q139 225 415 225z
" />
    <glyph glyph-name="one" unicode="1" horiz-adv-x="800" 
d="M575 1595v-1620h-143v1375l-268 -168v176l375 237h36z" />
    <glyph glyph-name="two" unicode="2" horiz-adv-x="1316" 
d="M174 -25v54l590 764q121 158 150 228q30 69 30 187t-76 197q-76 80 -203 80t-215 -92t-108 -236l-133 27q14 186 141 309q119 121 310 121t312 -116q120 -116 120 -308t-197 -445l-496 -641h734v-129h-959z" />
    <glyph glyph-name="three" unicode="3" horiz-adv-x="1325" 
d="M696 983q186 0 322 -138q136 -139 137 -371q0 -232 -137 -374t-356 -143q-219 0 -355 121t-162 342l144 20q20 -162 110 -258t255 -96t259 102q95 102 95 286t-96 284t-269 100q-76 0 -143 -43l-70 90l420 561h-623v129h846v-39l-436 -581q20 8 59 8z" />
    <glyph glyph-name="four" unicode="4" horiz-adv-x="1347" 
d="M852 477v916l-512 -916h512zM852 -25v373h-715v39l682 1208h176v-1118h215v-129h-215v-373h-143z" />
    <glyph glyph-name="five" unicode="5" horiz-adv-x="1302" 
d="M641 86q174 0 263 111t89 313t-93 305q-93 104 -259 105q-205 0 -334 -218l-100 23l82 870h758v-129h-627l-60 -551q125 133 295 134q222 0 355 -147q131 -148 131 -396t-133 -400q-141 -149 -350 -149q-210 0 -336 111t-156 333l141 25q47 -340 334 -340z" />
    <glyph glyph-name="six" unicode="6" horiz-adv-x="1329" 
d="M683 86q155 0 257 111q100 115 100 292t-98 286q-98 108 -257 108t-258 -109t-99 -286q0 -178 100 -290t255 -112zM684 1012q222 0 364 -152t142 -376t-141 -378q-143 -150 -363 -150t-364 150q-141 154 -142 379q0 145 86 297l479 832h150l-360 -641q55 39 149 39z" />
    <glyph glyph-name="seven" unicode="7" horiz-adv-x="1105" 
d="M137 1466v129h897v-47l-641 -1573h-149l618 1491h-725z" />
    <glyph glyph-name="eight" unicode="8" horiz-adv-x="1337" 
d="M669 1485q-126 0 -207 -81t-81 -213t79 -211t209 -79t209 79t79 211t-81 213t-207 81zM670 86q154 0 246 91t92 248t-93 253t-246 95t-245 -93t-92 -252t92 -251t246 -91zM1100 1192q0 -121 -58 -209t-147 -135q113 -41 186 -157q74 -116 74 -263q0 -221 -139 -346
t-347 -125t-347 126q-140 126 -140 348t158 356q47 40 102 61q-90 47 -147 135t-57 209q0 188 120 305t312 117q193 0 309 -119q121 -113 121 -303z" />
    <glyph glyph-name="nine" unicode="9" horiz-adv-x="1312" 
d="M668 1485q-156 0 -256 -115q-98 -106 -98 -285t97 -288q98 -109 258 -109q159 0 258 109t99 285q0 175 -101 289t-257 114zM670 559q-221 0 -365 150q-141 155 -141 379t141 372q141 154 363 154t364 -154q141 -147 142 -375q0 -147 -87 -297l-479 -831h-149l360 641
q-55 -39 -149 -39z" />
    <glyph glyph-name="colon" unicode=":" horiz-adv-x="690" 
d="M227 929q0 85 74 117q75 32 127 -26q57 -53 26 -128q-30 -75 -117 -75q-46 0 -78 33t-32 79zM227 81q0 85 74 117q75 32 127 -26q57 -53 26 -127t-117 -74q-46 0 -78 32t-32 78z" />
    <glyph glyph-name="semicolon" unicode=";" horiz-adv-x="690" 
d="M141 -203l115 381h213l-221 -381h-107zM227 929q0 85 74 117q75 32 127 -26q57 -53 26 -128q-30 -75 -117 -75q-46 0 -78 33t-32 79z" />
    <glyph glyph-name="less" unicode="&#x3c;" horiz-adv-x="1046" 
d="M129 614v158l774 416v-144l-655 -352l655 -350v-145z" />
    <glyph glyph-name="equal" unicode="=" horiz-adv-x="1368" 
d="M236 436v129h897v-129h-897zM236 819v131h897v-131h-897z" />
    <glyph glyph-name="greater" unicode="&#x3e;" horiz-adv-x="1046" 
d="M915 772v-158l-772 -417v145l656 350l-656 352v144z" />
    <glyph glyph-name="question" unicode="?" horiz-adv-x="1013" 
d="M522 432q-124 0 -206 75t-80 204q0 186 204 297l189 104q121 62 121 162t-58 152t-170 53q-203 0 -260 -236l-147 27q29 162 136 253q108 91 277 91t269 -90q100 -91 100 -234q0 -180 -201 -286l-166 -91q-82 -45 -116 -91t-35 -114q0 -68 37 -105q36 -38 104 -38t111 36
t69 118l117 -45q-68 -242 -295 -242zM527 225q56 0 91 -36t35 -92t-34 -90t-91 -35q-58 -2 -92 34t-36 89q-1 53 34 93q37 37 93 37z" />
    <glyph glyph-name="at" unicode="@" horiz-adv-x="1994" 
d="M940 354q129 0 211 115t82 263q-1 148 -65 228t-193 80t-215 -112t-85 -267t69 -231t196 -76zM1485 354q117 0 177 118t60 304q0 355 -184 543t-518 188q-140 0 -276 -56q-136 -55 -241 -161t-170 -262t-65 -356q0 -365 211 -575t539 -210q230 0 420 84q70 31 149 76
l51 -115q-182 -98 -316 -135t-317 -38q-382 -2 -632 245q-254 246 -254 668q0 236 77 423q76 187 206 304q262 237 633 237q370 0 603 -218t234 -627q0 -272 -108 -419t-287 -147q-98 -1 -164 53t-86 128q-119 -180 -310 -180t-293 117q-102 118 -102 324q0 207 135 355
t344 147q90 0 158 -39t103 -106l32 129h125l-55 -612l-6 -54q0 -133 127 -133z" />
    <glyph glyph-name="A" unicode="A" horiz-adv-x="1351" 
d="M676 1386l-285 -806h570zM608 1595h135l586 -1620h-158l-161 461h-668l-162 -461h-157z" />
    <glyph glyph-name="B" unicode="B" horiz-adv-x="1425" 
d="M387 1452v-541h367q295 1 295 271t-295 270h-367zM387 766v-647h375q182 0 274 75q92 74 92 248t-92 249t-274 75h-375zM233 1595h521q216 1 334 -109t118 -306q0 -104 -59 -193t-146 -125q129 -47 208 -150t79 -270q0 -210 -134 -340q-135 -127 -363 -127h-558v1620z
" />
    <glyph glyph-name="C" unicode="C" horiz-adv-x="1572" 
d="M852 -43q-297 0 -508 215q-207 217 -207 612q0 205 59 367q104 289 391 411q124 52 265 52q229 0 388 -124t222 -339l-149 -43q-47 174 -164 268t-297 94q-250 0 -402 -179t-153 -506q0 -327 153 -505t402 -180q180 0 297 94t164 269l149 -43q-63 -215 -222 -339
t-388 -124z" />
    <glyph glyph-name="D" unicode="D" horiz-adv-x="1531" 
d="M387 1452v-1333h275q246 0 407 170q166 167 166 495t-166 498q-162 170 -407 170h-275zM233 1595h426q319 0 529 -219q207 -223 207 -594t-207 -589q-209 -217 -529 -218h-426v1620z" />
    <glyph glyph-name="E" unicode="E" horiz-adv-x="1314" 
d="M233 1595h914v-143h-760v-541h623v-145h-623v-647h784v-144h-938v1620z" />
    <glyph glyph-name="F" unicode="F" horiz-adv-x="1302" 
d="M233 1595h930v-143h-776v-561h639v-143h-639v-773h-154v1620z" />
    <glyph glyph-name="G" unicode="G" horiz-adv-x="1638" 
d="M848 -43q-295 0 -504 217q-207 219 -207 611t207 612q209 217 504 217q238 0 400 -125t225 -346l-152 -43q-55 180 -176 275t-297 95q-248 0 -400 -180t-152 -505t150 -504q154 -181 394 -181t362 140q123 140 127 409h-375v144h527v-818h-133l-19 250
q-65 -125 -193 -197t-288 -71z" />
    <glyph glyph-name="H" unicode="H" horiz-adv-x="1597" 
d="M1210 1595h154v-1620h-154v789h-823v-789h-154v1620h154v-688h823v688z" />
    <glyph glyph-name="I" unicode="I" horiz-adv-x="620" 
d="M387 1595v-1620h-154v1620h154z" />
    <glyph glyph-name="J" unicode="J" horiz-adv-x="1150" 
d="M797 434v1161h151v-1144q0 -233 -133 -363t-331 -131q-198 0 -311 118q-114 118 -138 296l158 35q42 -306 301 -306q135 0 219 83t84 251z" />
    <glyph glyph-name="K" unicode="K" horiz-adv-x="1306" 
d="M387 -25h-154v1620h154v-692l631 692h194l-663 -727l721 -893h-187l-696 859v-859z" />
    <glyph glyph-name="L" unicode="L" horiz-adv-x="1191" 
d="M233 1595h154v-1476h758v-144h-912v1620z" />
    <glyph glyph-name="M" unicode="M" horiz-adv-x="1810" 
d="M233 1595h191l481 -1220l481 1220h191v-1620h-154v1323l-469 -1175h-98l-469 1175v-1323h-154v1620z" />
    <glyph glyph-name="N" unicode="N" horiz-adv-x="1603" 
d="M1217 1595h153v-1620h-180l-803 1373v-1373h-154v1620h181l803 -1376v1376z" />
    <glyph glyph-name="O" unicode="O" horiz-adv-x="1693" 
d="M297 786q0 -330 155 -508q156 -178 394 -178t396 180t157 506q0 324 -157 504q-156 180 -396 180t-395 -180q-154 -174 -154 -504zM847 -43q-296 0 -505 227q-205 229 -205 601t207 600q207 229 504 229t502 -230q206 -224 206 -598t-206 -602q-207 -227 -503 -227z" />
    <glyph glyph-name="P" unicode="P" horiz-adv-x="1337" 
d="M786 846q160 0 233 82t73 221t-73 221t-233 82h-399v-606h399zM387 702v-727h-154v1620h551q217 1 342 -117t125 -329t-125 -329t-342 -118h-397z" />
    <glyph glyph-name="Q" unicode="Q" horiz-adv-x="1693" 
d="M1399 806q0 304 -157 484q-156 180 -396 180t-395 -180q-154 -174 -154 -504t155 -508t396 -178q186 0 323 109l-172 174l105 104l166 -170q129 185 129 489zM848 -43q-297 0 -506 227q-205 229 -205 601t207 600q207 229 504 229t502 -230q206 -224 206 -585t-182 -586
l156 -152l-105 -104l-153 154q-182 -154 -424 -154z" />
    <glyph glyph-name="R" unicode="R" horiz-adv-x="1472" 
d="M387 1452v-532h358q317 0 318 266q0 266 -318 266h-358zM387 776v-801h-154v1620h521q223 0 343 -102q120 -103 120 -293q-1 -190 -93 -292t-262 -126l506 -807h-172l-506 801h-303z" />
    <glyph glyph-name="S" unicode="S" horiz-adv-x="1171" 
d="M573 1470q-103 0 -162 -68t-60 -172t72 -178t158 -111q85 -38 206 -99q268 -136 268 -410q0 -217 -130 -346t-326 -129t-328 119t-175 319l133 78q49 -174 130 -273q81 -100 227 -100t227 84q82 84 82 242q0 196 -248 313q-208 93 -287 157q-166 134 -165 314
q2 181 110 293q111 111 268 111q244 0 352 -177q19 -32 42 -73l-125 -78q-96 184 -269 184z" />
    <glyph glyph-name="T" unicode="T" horiz-adv-x="1193" 
d="M37 1452v143h1120v-143h-483v-1477h-154v1477h-483z" />
    <glyph glyph-name="U" unicode="U" horiz-adv-x="1513" 
d="M201 1595h153v-1116q0 -165 107 -272t296 -107t297 108t105 271v1116h154v-1101q0 -254 -161 -396q-162 -142 -396 -141q-234 0 -396 141q-160 141 -159 396v1101z" />
    <glyph glyph-name="V" unicode="V" horiz-adv-x="1329" 
d="M1155 1595h158l-568 -1620h-161l-568 1620h158l490 -1402z" />
    <glyph glyph-name="W" unicode="W" horiz-adv-x="2080" 
d="M1849 1595h158l-444 -1620h-156l-369 1213l-364 -1213h-156l-444 1620h157l369 -1384l373 1212h135l373 -1212z" />
    <glyph glyph-name="X" unicode="X" 
d="M1001 1595h160l-428 -727l529 -893h-160l-447 760l-446 -760h-160l526 893l-428 727h160l348 -589z" />
    <glyph glyph-name="Y" unicode="Y" horiz-adv-x="1157" 
d="M655 -25h-153v705l-488 915h179l385 -766l387 766h178l-488 -915v-705z" />
    <glyph glyph-name="Z" unicode="Z" horiz-adv-x="1267" 
d="M139 1452v143h989v-73l-804 -1403h821v-144h-1034v74l815 1403h-787z" />
    <glyph glyph-name="bracketleft" unicode="[" horiz-adv-x="745" 
d="M233 -139v1849h414v-129h-274v-1591h274v-129h-414z" />
    <glyph glyph-name="backslash" unicode="\" horiz-adv-x="1220" 
d="M18 1710h154l1008 -1849h-152z" />
    <glyph glyph-name="bracketright" unicode="]" horiz-adv-x="745" 
d="M512 1710v-1849h-416v129h277v1591h-277v129h416z" />
    <glyph glyph-name="asciicircum" unicode="^" horiz-adv-x="1204" 
d="M547 1595h110l426 -626h-159l-322 491l-321 -491h-160z" />
    <glyph glyph-name="underscore" unicode="_" horiz-adv-x="1099" 
d="M76 -154v129h946v-129h-946z" />
    <glyph glyph-name="grave" unicode="`" horiz-adv-x="483" 
d="M264 1595l162 -323h-113l-264 323h215z" />
    <glyph glyph-name="a" unicode="a" horiz-adv-x="1171" 
d="M1008 -25h-111l-35 181q-115 -199 -366 -199q-166 0 -266 89q-99 89 -99 272q0 182 142 278t397 96h192v51q0 147 -70 215q-71 68 -198 68q-213 0 -277 -217l-139 33q23 144 139 232q116 89 286 88q169 -1 286 -113q119 -109 119 -301v-773zM283 318q0 -228 240 -228
q120 0 230 104t109 320v45h-188q-197 -1 -294 -65t-97 -176z" />
    <glyph glyph-name="b" unicode="b" horiz-adv-x="1384" 
d="M728 1026q-178 0 -279 -131q-97 -133 -97 -340t99 -336t275 -129t277 128t101 337t-99 340t-277 131zM221 1614h150v-637q63 83 163 133q100 51 199 51q246 0 383 -170t137 -433t-136 -432t-384 -169q-169 0 -301 105q-39 32 -61 67v-154h-150v1639z" />
    <glyph glyph-name="c" unicode="c" horiz-adv-x="1222" 
d="M645 -43q-246 0 -381 177t-135 423t137 425t379 179q348 0 471 -323l-131 -50q-94 238 -340 238q-182 0 -272 -135q-94 -133 -93 -335t93 -334t272 -132q244 0 340 240l131 -51q-123 -322 -471 -322z" />
    <glyph glyph-name="d" unicode="d" horiz-adv-x="1384" 
d="M281 559q0 -328 216 -434q71 -35 161 -35t159 35q141 71 191 244q25 86 24 190q0 205 -100 336q-94 131 -274 131t-279 -131q-98 -133 -98 -336zM1014 1614h147v-1639h-147v154q-85 -118 -253 -159q-54 -13 -110 -13q-248 0 -385 168q-137 174 -137 433t137 431
q141 172 385 172q147 0 289 -109q43 -34 74 -75v637z" />
    <glyph glyph-name="e" unicode="e" horiz-adv-x="1277" 
d="M656 1026q-148 0 -243 -93t-124 -241h723q-23 156 -116 245q-92 89 -240 89zM1159 559h-878q0 -208 98 -339q99 -130 268 -130q132 0 215 60q82 60 146 192l127 -63q-132 -253 -334 -305q-70 -17 -154 -17q-231 0 -375 168q-143 174 -143 433t143 431q146 172 374 172
q228 1 370 -149t143 -389v-64z" />
    <glyph glyph-name="f" unicode="f" horiz-adv-x="831" 
d="M115 1008v135h186v74q0 397 361 397q88 0 139 -31l-31 -131q-55 27 -119 27q-207 0 -207 -240v-96h283v-135h-283v-1033h-143v1033h-186z" />
    <glyph glyph-name="g" unicode="g" horiz-adv-x="1136" 
d="M605 1037q-103 0 -177 -72t-74 -196t72 -195q72 -70 179 -70t180 70t73 194q0 123 -74 197q-76 72 -179 72zM483 68q-66 0 -112 8q-105 -68 -105 -198t87 -196t254 -67q167 0 254 71t87 183q0 199 -225 199h-240zM211 784q0 160 115 269t280 108q106 0 201 -53l209 117
l67 -123l-161 -90q80 -104 79 -242q0 -178 -112 -285q-113 -106 -283 -106q-125 0 -217 55q-94 -43 -94 -131q0 -111 143 -110h299q160 0 255 -75t95 -231q0 -202 -129 -303q-129 -102 -348 -101t-353 103q-130 103 -130 271t121 258q-92 53 -92 188q0 72 39 126t104 83
q-88 112 -88 272z" />
    <glyph glyph-name="h" unicode="h" horiz-adv-x="1353" 
d="M1145 -25h-144v783q0 128 -62 198t-179 70q-168 0 -281 -152t-112 -401v-498h-146v1639h146v-727q57 133 169 203q112 71 246 71q174 0 268 -100t95 -285v-801z" />
    <glyph glyph-name="i" unicode="i" horiz-adv-x="647" 
d="M254 1143h143v-1168h-143v1168zM207 1478q0 50 35 84t85 34t84 -34q33 -34 33 -84t-34 -85t-83 -35q-50 0 -85 35t-35 85z" />
    <glyph glyph-name="j" unicode="j" horiz-adv-x="647" 
d="M207 1478q0 50 35 84t85 34t84 -34q33 -34 33 -84t-34 -85t-83 -35q-50 0 -85 35t-35 85zM254 1143h143v-1315q0 -299 -288 -344l-33 135q94 27 136 77t42 152v1295z" />
    <glyph glyph-name="k" unicode="k" horiz-adv-x="1116" 
d="M221 1614h146v-987l487 516h180l-504 -537l545 -631h-182l-526 613v-613h-146v1639z" />
    <glyph glyph-name="l" unicode="l" horiz-adv-x="565" 
d="M217 1614h143v-1639h-143v1639z" />
    <glyph glyph-name="m" unicode="m" horiz-adv-x="1972" 
d="M1763 -25h-143v783q0 137 -46 203t-163 65q-147 0 -248 -147q-98 -152 -98 -392v-512h-143v783q0 137 -46 203t-163 65q-147 0 -248 -147q-100 -149 -98 -392v-512h-146v1168h146v-244q55 121 150 192t218 70q266 0 318 -260q61 113 163 187t220 73q168 0 248 -94
t79 -291v-801z" />
    <glyph glyph-name="n" unicode="n" horiz-adv-x="1333" 
d="M1124 -25h-143v783q0 268 -238 268q-164 0 -271 -148t-105 -391v-512h-146v1168h146v-244q59 119 167 191t232 71q168 0 263 -100t95 -285v-801z" />
    <glyph glyph-name="o" unicode="o" horiz-adv-x="1351" 
d="M281 557q1 -191 107 -329t289 -138t289 138t105 330q0 192 -105 330q-104 138 -288 138t-293 -139q-104 -139 -104 -330zM129 559q0 240 152 420q147 182 395 182t395 -182q152 -180 152 -420q1 -240 -149 -421t-398 -181t-398 181t-149 421z" />
    <glyph glyph-name="p" unicode="p" horiz-adv-x="1384" 
d="M352 563q0 -207 97 -340q102 -133 279 -133q176 0 276 132t100 338t-101 336t-278 130t-275 -128t-98 -335zM371 -498h-150v1641h150v-154q47 72 150 122q102 50 212 50q246 0 383 -170t137 -433t-136 -432t-384 -169q-149 0 -289 108q-43 34 -73 74v-637z" />
    <glyph glyph-name="q" unicode="q" horiz-adv-x="1384" 
d="M281 559q0 -205 100 -337t277 -132t274 133q100 131 100 336q0 324 -215 432q-70 35 -160 35q-91 0 -161 -35q-141 -70 -191 -243q-24 -87 -24 -189zM1161 -498h-147v637q-62 -82 -164 -132t-199 -50q-248 0 -385 168q-137 174 -137 433t137 431q141 172 385 172
q161 0 299 -106q39 -31 64 -66v154h147v-1641z" />
    <glyph glyph-name="r" unicode="r" horiz-adv-x="923" 
d="M695 1026q-79 0 -137 -40q-120 -83 -168 -305q-24 -112 -23 -255v-451h-146v1168h146v-209q109 227 342 227q76 0 176 -41l-33 -135q-78 41 -157 41z" />
    <glyph glyph-name="s" unicode="s" horiz-adv-x="1040" 
d="M532 1161q195 0 324 -182l-102 -88q-96 135 -228 135q-78 0 -125 -49t-47 -121t56 -118t128 -75q70 -29 134 -57q236 -102 235 -277q0 -175 -97 -273t-261 -99q-164 0 -272 88t-152 231l127 68q44 -122 110 -188t176 -66t165 55t55 141t-56 136q-56 51 -128 78
q-180 69 -239 112q-128 92 -128 233t92 228q92 88 233 88z" />
    <glyph glyph-name="t" unicode="t" horiz-adv-x="858" 
d="M63 1008v135h205v377l148 94v-471h311v-135h-311v-725q0 -193 162 -193q88 0 147 39l39 -131q-78 -41 -209 -41t-209 86t-78 264v701h-205z" />
    <glyph glyph-name="u" unicode="u" horiz-adv-x="1333" 
d="M209 1143h143v-783q0 -270 238 -270q162 0 268 150q109 150 109 391v512h143v-1168h-143v244q-59 -119 -167 -191t-233 -71q-168 0 -263 100t-95 285v801z" />
    <glyph glyph-name="v" unicode="v" horiz-adv-x="1036" 
d="M840 1143h151l-393 -1168h-158l-393 1168h150l321 -975z" />
    <glyph glyph-name="w" unicode="w" horiz-adv-x="1660" 
d="M1421 1143h150l-348 -1168h-150l-242 955l-243 -955h-148l-350 1168h152l272 -965l246 965h143l244 -965z" />
    <glyph glyph-name="x" unicode="x" horiz-adv-x="1032" 
d="M109 1143h159l248 -404l248 404h160l-330 -531l395 -637h-151l-322 510l-321 -510h-152l395 637z" />
    <glyph glyph-name="y" unicode="y" horiz-adv-x="1046" 
d="M860 1143h152l-580 -1641h-143l170 480l-420 1161h151l347 -946z" />
    <glyph glyph-name="z" unicode="z" horiz-adv-x="1054" 
d="M158 1008v135h755v-80l-587 -952h614v-136h-811v70l596 963h-567z" />
    <glyph glyph-name="braceleft" unicode="{" horiz-adv-x="733" 
d="M334 524q0 104 -42 150t-142 47v129q100 0 142 46t42 151v423q0 111 59 176t158 64h106v-129h-69q-61 0 -88 -28t-27 -87v-456q0 -98 -36 -148t-111 -78q76 -28 112 -76t35 -147v-457q0 -59 27 -87t88 -27h69v-129h-106q-98 0 -158 64q-59 65 -59 175v424z" />
    <glyph glyph-name="bar" unicode="|" horiz-adv-x="606" 
d="M233 1710h140v-1849h-140v1849z" />
    <glyph glyph-name="braceright" unicode="}" horiz-adv-x="733" 
d="M399 100q0 -112 -59 -176t-158 -63h-106v129h69q61 0 89 28t28 86v457q0 99 35 147t111 76q-76 29 -111 78t-35 148v456q0 59 -28 87t-89 28h-69v129h106q98 0 158 -64q59 -65 59 -176v-423q0 -105 42 -151t143 -46v-129q-100 0 -142 -46t-43 -151v-424z" />
    <glyph glyph-name="asciitilde" unicode="~" horiz-adv-x="1392" 
d="M479 897q90 0 210 -62t206 -63q123 0 209 105l92 -93q-131 -180 -283 -180q-87 0 -209 62t-206 63q-123 0 -209 -102l-92 90q131 180 282 180z" />
    <glyph glyph-name="uni00A0" unicode="&#xa0;" horiz-adv-x="583" 
 />
    <glyph glyph-name="exclamdown" unicode="&#xa1;" horiz-adv-x="751" 
d="M244 995q0 55 35 91t91 36t92 -36t36 -91t-36 -90t-90 -36q-53 -1 -93 34q-35 37 -35 92zM467 -502h-195l52 1194h92z" />
    <glyph glyph-name="cent" unicode="&#xa2;" horiz-adv-x="1267" 
d="M731 -139h-139v325q-213 25 -332 196t-119 403q0 231 119 403t332 196v326h139v-326q285 -31 395 -319l-129 -51q-98 240 -340 239q-180 0 -272 -135q-94 -131 -94 -333q0 -203 93 -335t273 -133q242 0 340 240l129 -51q-109 -287 -395 -320v-325z" />
    <glyph glyph-name="sterling" unicode="&#xa3;" horiz-adv-x="1226" 
d="M823 82q84 0 130 42t108 152l108 -63q-76 -139 -151 -198q-76 -58 -176 -58t-203 53t-153 53t-96 -9q-62 -12 -165 -97l-114 127q256 246 256 491q0 84 -31 177h-195v133h146q-100 258 -32 446q103 283 400 283q154 0 263 -86t165 -240l-127 -59q-59 129 -127 189
q-69 60 -185 60t-192 -85q-76 -86 -75 -246q0 -98 53 -262h379v-133h-336q21 -99 22 -197q1 -97 -53 -219t-133 -195q191 103 375 -4q98 -55 139 -55z" />
    <glyph glyph-name="currency" unicode="&#xa4;" horiz-adv-x="1263" 
d="M309 686q0 -150 88 -246q89 -96 235 -96t234 96t88 246t-88 248q-90 94 -234 94t-235 -94q-88 -98 -88 -248zM180 686q0 154 88 283l-200 153l127 129l151 -196q123 98 286 98t283 -98l154 196l127 -129l-201 -153q88 -129 88 -283t-88 -283l201 -155l-127 -127l-154 196
q-117 -98 -283 -98t-286 98l-151 -196l-127 127l200 155q-88 129 -88 283z" />
    <glyph glyph-name="yen" unicode="&#xa5;" horiz-adv-x="1157" 
d="M1028 809v-129h-373v-203h373v-129h-373v-373h-153v373h-373v129h373v203h-373v129h305l-403 786h178l369 -761l370 761h178l-403 -786h305z" />
    <glyph glyph-name="brokenbar" unicode="&#xa6;" horiz-adv-x="606" 
d="M373 903h-140v807h140v-807zM233 668h140v-807h-140v807z" />
    <glyph glyph-name="section" unicode="&#xa7;" horiz-adv-x="1239" 
d="M948 469q0 105 -117 180q-83 54 -126 76l-244 119q-164 -80 -164 -213q0 -100 117 -182q62 -43 127 -78l243 -115q164 80 164 213zM1087 467q0 -182 -186 -299q113 -115 113 -264q0 -195 -117 -305q-115 -115 -274 -115q-340 0 -420 338l131 45q72 -248 289 -248
q106 0 175 73q68 73 68 196t-96 192q-26 18 -50 36t-46 27l-137 70q-172 88 -233 136q-62 48 -91 88q-55 76 -55 196q0 180 186 299q-113 113 -113 264q0 194 114 306t278 112q340 0 417 -338l-129 -43q-74 246 -288 246q-105 0 -175 -72t-70 -193t97 -198q102 -68 226 -129
q124 -62 169 -88q107 -63 162 -139t55 -193z" />
    <glyph glyph-name="dieresis" unicode="&#xa8;" horiz-adv-x="679" 
d="M406 1480q0 48 31 82q32 34 80 34t81 -34t33 -82t-33 -80t-81 -32t-80 32q-31 32 -31 80zM49 1480q0 48 32 82t81 34t81 -34q31 -34 31 -82t-32 -80t-80 -32q-49 0 -81 32t-32 80z" />
    <glyph glyph-name="copyright" unicode="&#xa9;" horiz-adv-x="2086" 
d="M1030 285q-158 0 -298 128q-140 129 -140 373t140 372t298 128t260 -80q104 -80 140 -227l-123 -31q-68 213 -263 213q-141 0 -228 -96q-87 -95 -87 -279t87 -280t228 -96q195 0 263 213l123 -31q-34 -147 -138 -227t-262 -80zM317 785q0 -323 201 -541
q204 -217 528 -217t524 216q200 217 200 543t-200 542t-524 216t-528 -217q-201 -219 -201 -542zM1042 -117q-376 0 -622 257t-246 646q0 390 246 646t622 256t625 -258q248 -260 248 -644t-248 -647q-249 -256 -625 -256z" />
    <glyph glyph-name="ordfeminine" unicode="&#xaa;" horiz-adv-x="995" 
d="M283 938q-1 -166 181 -166q94 0 178 79t85 247v35h-149q-295 0 -295 -195zM840 670h-86l-23 145q-88 -156 -293 -156q-125 0 -205 72q-79 72 -79 213t109 218q110 77 310 77h154v39q0 215 -211 215q-164 0 -215 -166l-111 27q23 120 112 186t225 66q137 0 225 -78
t88 -248v-610z" />
    <glyph glyph-name="guillemotleft" unicode="&#xab;" horiz-adv-x="1398" 
d="M651 645v96l609 451v-156l-459 -344l459 -342v-157zM115 645v96l610 451v-156l-459 -344l459 -342v-157z" />
    <glyph glyph-name="logicalnot" unicode="&#xac;" horiz-adv-x="1325" 
d="M162 721v133h979v-551h-148v418h-831z" />
    <glyph glyph-name="uni00AD" unicode="&#xad;" horiz-adv-x="1089" 
d="M164 645v129h762v-129h-762z" />
    <glyph glyph-name="registered" unicode="&#xae;" horiz-adv-x="2086" 
d="M866 1153v-315h197q84 0 127 42t43 115q0 158 -170 158h-197zM866 713v-420h-137v985h334q141 0 224 -77t83 -193t-62 -192q-62 -75 -161 -93l295 -430h-144l-290 420h-142zM317 785q0 -323 201 -541q204 -217 528 -217t524 216q200 217 200 543t-200 542t-524 216
t-528 -217q-201 -219 -201 -542zM1042 -117q-376 0 -622 257t-246 646q0 390 246 646t622 256t625 -258q248 -260 248 -644t-248 -647q-249 -256 -625 -256z" />
    <glyph glyph-name="macron" unicode="&#xaf;" horiz-adv-x="626" 
d="M35 1466v129h557v-129h-557z" />
    <glyph glyph-name="degree" unicode="&#xb0;" horiz-adv-x="815" 
d="M305 1452q-41 -41 -41 -106t41 -106q41 -40 103 -40t101 40q40 40 40 107t-40 107q-39 39 -101 39t-103 -41zM406 1091q-112 0 -181 71t-69 185q0 115 70 187t181 72q110 0 181 -76q72 -70 72 -184t-72 -184q-70 -71 -182 -71z" />
    <glyph glyph-name="plusminus" unicode="&#xb1;" horiz-adv-x="1251" 
d="M154 -25v129h948v-129h-948zM1102 961v-130h-410v-409h-129v409h-409v130h409v407h129v-407h410z" />
    <glyph glyph-name="uni00B2" unicode="&#xb2;" horiz-adv-x="882" 
d="M150 670v43l342 424q92 117 92 197q0 155 -144 155q-63 0 -101 -49t-48 -127l-125 33q12 112 86 186t194 74t191 -72q72 -72 72 -192t-91 -240l-258 -318h371v-114h-581z" />
    <glyph glyph-name="uni00B3" unicode="&#xb3;" horiz-adv-x="890" 
d="M274 950q22 -178 178 -178q80 0 122 54t42 140t-42 137q-42 50 -125 50q-47 0 -80 -23l-62 80l207 275h-313v110h493v-39l-231 -313q16 4 41 4q104 0 171 -76t66 -204q0 -212 -168 -284q-55 -24 -124 -24q-123 0 -205 72t-94 201z" />
    <glyph glyph-name="acute" unicode="&#xb4;" horiz-adv-x="483" 
d="M57 1272l162 323h215l-262 -323h-115z" />
    <glyph glyph-name="mu" unicode="&#xb5;" horiz-adv-x="1507" 
d="M236 -584v1854h161v-885q0 -305 269 -305q184 0 303 170q123 166 123 442v578h161v-1319h-161v274q-107 -208 -315 -273q-67 -22 -136 -22q-145 0 -244 68v-582h-161z" />
    <glyph glyph-name="mu" unicode="&#x3bc;" horiz-adv-x="1507" 
d="M236 -584v1854h161v-885q0 -305 269 -305q184 0 303 170q123 166 123 442v578h161v-1319h-161v274q-107 -208 -315 -273q-67 -22 -136 -22q-145 0 -244 68v-582h-161z" />
    <glyph glyph-name="paragraph" unicode="&#xb6;" horiz-adv-x="1507" 
d="M1350 1595v-143h-136v-1950h-151v1950h-369v-1950h-153v1293q-166 0 -285 116q-115 119 -115 285t117 283t283 116h809z" />
    <glyph glyph-name="periodcentered" unicode="&#xb7;" horiz-adv-x="657" 
d="M211 781q0 52 34 86t84 34t84 -34q33 -34 33 -84t-34 -84q-34 -33 -83 -33q-50 0 -84 32t-34 83z" />
    <glyph glyph-name="cedilla" unicode="&#xb8;" horiz-adv-x="405" 
d="M379 -164l-186 -356l-168 71l227 285h127z" />
    <glyph glyph-name="uni00B9" unicode="&#xb9;" horiz-adv-x="657" 
d="M451 1595v-925h-115v753l-197 -94v129l275 137h37z" />
    <glyph glyph-name="ordmasculine" unicode="&#xba;" horiz-adv-x="1185" 
d="M289 1132q0 -146 80 -252t223 -108q143 0 223 106t80 254q0 146 -80 253t-223 107t-223 -108q-80 -106 -80 -252zM591 660q-191 0 -309 142t-118 330t118 331t309 143t312 -142q117 -145 117 -332t-117 -331q-121 -141 -312 -141z" />
    <glyph glyph-name="guillemotright" unicode="&#xbb;" horiz-adv-x="1398" 
d="M748 741v-96l-609 -452v157l459 342l-459 344v156zM1282 741v-96l-608 -452v157l459 342l-459 344v156z" />
    <glyph glyph-name="onequarter" unicode="&#xbc;" horiz-adv-x="1828" 
d="M1386 279v450l-235 -450h235zM1386 -25v193h-395v39l375 694h135v-622h121v-111h-121v-193h-115zM498 1595v-925h-117v753l-197 -94v129l277 137h37zM1475 1651l96 -76l-1254 -1655l-98 76z" />
    <glyph glyph-name="onehalf" unicode="&#xbd;" horiz-adv-x="1982" 
d="M1161 -25v43l340 424q94 115 94 196q0 157 -143 157q-63 1 -101 -49t-48 -128l-125 33q12 113 86 187t194 74t191 -72t71 -193t-90 -239l-258 -318h371v-115h-582zM498 1595v-925h-117v753l-197 -94v129l277 137h37zM1475 1651l96 -76l-1254 -1655l-98 76z" />
    <glyph glyph-name="threequarters" unicode="&#xbe;" horiz-adv-x="1943" 
d="M1491 279v450l-238 -450h238zM1491 -25v193h-397v39l376 694h136v-622h120v-111h-120v-193h-115zM274 950q22 -178 178 -178q80 0 122 54t42 140t-42 137q-42 50 -125 50q-47 0 -80 -23l-62 80l207 275h-313v110h493v-39l-231 -313q16 4 41 4q104 0 171 -76t66 -204
q0 -212 -168 -284q-55 -24 -124 -24q-123 0 -205 72t-94 201zM1640 1651l99 -76l-1256 -1655l-96 76z" />
    <glyph glyph-name="questiondown" unicode="&#xbf;" horiz-adv-x="1013" 
d="M492 664q122 0 205 -75t81 -206q0 -186 -205 -297l-188 -104q-121 -62 -121 -162t58 -152t170 -53q203 0 260 235l145 -24q-29 -164 -135 -255t-276 -91t-271 91q-102 91 -100 232q0 178 202 287l166 92q82 43 117 89t35 114q0 67 -37 105q-36 38 -104 38t-112 -34
t-69 -119l-116 45q68 244 295 244zM612 995q0 -55 -35 -90t-89 -36t-95 34q-35 37 -35 92t36 91t91 36t91 -36t36 -91z" />
    <glyph glyph-name="Agrave" unicode="&#xc0;" horiz-adv-x="1351" 
d="M639 2048l162 -324h-113l-264 324h215zM676 1386l-285 -806h570zM608 1595h135l586 -1620h-158l-161 461h-668l-162 -461h-157z" />
    <glyph glyph-name="Aacute" unicode="&#xc1;" horiz-adv-x="1351" 
d="M547 1724l162 324h215l-265 -324h-112zM676 1386l-285 -806h570zM608 1595h135l586 -1620h-158l-161 461h-668l-162 -461h-157z" />
    <glyph glyph-name="Acircumflex" unicode="&#xc2;" horiz-adv-x="1351" 
d="M317 1739l334 350h49l334 -350h-166l-192 207l-193 -207h-166zM676 1386l-285 -806h570zM608 1595h135l586 -1620h-158l-161 461h-668l-162 -461h-157z" />
    <glyph glyph-name="Atilde" unicode="&#xc3;" horiz-adv-x="1351" 
d="M516 2034q82 0 166 -49q90 -47 137 -48q88 0 156 84l92 -71q-86 -160 -229 -160q-80 0 -168 47t-135 47q-88 0 -156 -82l-92 72q86 160 229 160zM676 1386l-285 -806h570zM608 1595h135l586 -1620h-158l-161 461h-668l-162 -461h-157z" />
    <glyph glyph-name="Adieresis" unicode="&#xc4;" horiz-adv-x="1351" 
d="M741 1934q0 48 32 81t79 33t81 -33t34 -81t-34 -80t-81 -32t-79 32t-32 80zM385 1934q0 48 32 81t81 33t81 -33q31 -33 31 -81t-32 -80t-80 -32q-49 0 -81 32t-32 80zM676 1386l-285 -806h570zM608 1595h135l586 -1620h-158l-161 461h-668l-162 -461h-157z" />
    <glyph glyph-name="Aring" unicode="&#xc5;" horiz-adv-x="1351" 
d="M565 1943q0 -54 34 -87t85 -33q51 1 84 33t33 88t-33 90t-84 34t-85 -36t-34 -89zM682 2167q98 0 162 -65t63 -160q0 -95 -63 -157q-62 -63 -160 -63t-162 64t-63 157q0 94 63 159q62 65 160 65zM676 1386l-285 -806h570zM608 1595h135l586 -1620h-158l-161 461h-668
l-162 -461h-157z" />
    <glyph glyph-name="AE" unicode="&#xc6;" horiz-adv-x="1900" 
d="M819 580v806h-24l-355 -806h379zM1733 1595v-143h-760v-541h622v-145h-622v-647h784v-144h-938v461h-442l-201 -461h-160l711 1620h1006z" />
    <glyph glyph-name="Ccedilla" unicode="&#xc7;" horiz-adv-x="1572" 
d="M983 -164l-186 -356l-168 71l227 285h127zM852 -43q-297 0 -508 215q-207 217 -207 612q0 205 59 367q104 289 391 411q124 52 265 52q229 0 388 -124t222 -339l-149 -43q-47 174 -164 268t-297 94q-250 0 -402 -179t-153 -506q0 -327 153 -505t402 -180q180 0 297 94
t164 269l149 -43q-63 -215 -222 -339t-388 -124z" />
    <glyph glyph-name="Egrave" unicode="&#xc8;" horiz-adv-x="1314" 
d="M676 2048l162 -324h-113l-264 324h215zM233 1595h914v-143h-760v-541h623v-145h-623v-647h784v-144h-938v1620z" />
    <glyph glyph-name="Eacute" unicode="&#xc9;" horiz-adv-x="1314" 
d="M569 1724l162 324h215l-264 -324h-113zM233 1595h914v-143h-760v-541h623v-145h-623v-647h784v-144h-938v1620z" />
    <glyph glyph-name="Ecircumflex" unicode="&#xca;" horiz-adv-x="1314" 
d="M332 1739l332 350h51l334 -350h-166l-193 207l-192 -207h-166zM233 1595h914v-143h-760v-541h623v-145h-623v-647h784v-144h-938v1620z" />
    <glyph glyph-name="Edieresis" unicode="&#xcb;" horiz-adv-x="1314" 
d="M780 1934q0 48 32 81t80 33t82 -33t34 -81t-34 -80t-82 -32t-80 32t-32 80zM424 1934q0 48 33 81t81 33t80 -33t33 -81q0 -48 -33 -80q-32 -32 -80 -32t-81 32t-33 80zM233 1595h914v-143h-760v-541h623v-145h-623v-647h784v-144h-938v1620z" />
    <glyph glyph-name="Igrave" unicode="&#xcc;" horiz-adv-x="620" 
d="M272 2048l162 -324h-112l-265 324h215zM387 1595v-1620h-154v1620h154z" />
    <glyph glyph-name="Iacute" unicode="&#xcd;" horiz-adv-x="620" 
d="M197 1724l161 324h215l-264 -324h-112zM387 1595v-1620h-154v1620h154z" />
    <glyph glyph-name="Icircumflex" unicode="&#xce;" horiz-adv-x="620" 
d="M-49 1739l334 350h51l334 -350h-168l-193 207l-190 -207h-168zM387 1595v-1620h-154v1620h154z" />
    <glyph glyph-name="Idieresis" unicode="&#xcf;" horiz-adv-x="620" 
d="M375 1934q0 48 32 81q31 33 79 33t82 -33t34 -81t-34 -80t-82 -32t-80 32t-31 80zM18 1934q0 48 33 81t81 33t81 -33t33 -81t-33 -80t-81 -32t-81 32t-33 80zM387 1595v-1620h-154v1620h154z" />
    <glyph glyph-name="Eth" unicode="&#xd0;" horiz-adv-x="1589" 
d="M444 1452v-594h195v-145h-195v-594h275q246 0 407 170q168 169 168 497t-168 496q-162 170 -407 170h-275zM96 713v145h195v737h426q319 0 528 -220t209 -591t-209 -589q-209 -219 -528 -220h-426v738h-195z" />
    <glyph glyph-name="Ntilde" unicode="&#xd1;" horiz-adv-x="1603" 
d="M629 2034q84 0 168 -49q88 -47 135 -48q90 0 155 84l93 -71q-86 -160 -230 -160q-80 0 -166 47t-137 47q-90 0 -153 -82l-95 72q88 160 230 160zM1217 1595h153v-1620h-180l-803 1373v-1373h-154v1620h181l803 -1376v1376z" />
    <glyph glyph-name="Ograve" unicode="&#xd2;" horiz-adv-x="1693" 
d="M786 2048l162 -324h-112l-265 324h215zM297 786q0 -330 155 -508q156 -178 394 -178t396 180t157 506q0 324 -157 504q-156 180 -396 180t-395 -180q-154 -174 -154 -504zM847 -43q-296 0 -505 227q-205 229 -205 601t207 600q207 229 504 229t502 -230
q206 -224 206 -598t-206 -602q-207 -227 -503 -227z" />
    <glyph glyph-name="Oacute" unicode="&#xd3;" horiz-adv-x="1693" 
d="M664 1724l161 324h215l-262 -324h-114zM297 786q0 -330 155 -508q156 -178 394 -178t396 180t157 506q0 324 -157 504q-156 180 -396 180t-395 -180q-154 -174 -154 -504zM847 -43q-296 0 -505 227q-205 229 -205 601t207 600q207 229 504 229t502 -230
q206 -224 206 -598t-206 -602q-207 -227 -503 -227z" />
    <glyph glyph-name="Ocircumflex" unicode="&#xd4;" horiz-adv-x="1693" 
d="M487 1739l334 350h51l334 -350h-168l-190 207l-193 -207h-168zM297 786q0 -330 155 -508q156 -178 394 -178t396 180t157 506q0 324 -157 504q-156 180 -396 180t-395 -180q-154 -174 -154 -504zM847 -43q-296 0 -505 227q-205 229 -205 601t207 600q207 229 504 229
t502 -230q206 -224 206 -598t-206 -602q-207 -227 -503 -227z" />
    <glyph glyph-name="Otilde" unicode="&#xd5;" horiz-adv-x="1693" 
d="M688 2034q82 0 166 -49q88 -47 137 -48q88 0 154 84l94 -71q-90 -160 -229 -160q-82 0 -168 47t-135 47q-92 0 -156 -82l-92 72q86 160 229 160zM297 786q0 -330 155 -508q156 -178 394 -178t396 180t157 506q0 324 -157 504q-156 180 -396 180t-395 -180
q-154 -174 -154 -504zM847 -43q-296 0 -505 227q-205 229 -205 601t207 600q207 229 504 229t502 -230q206 -224 206 -598t-206 -602q-207 -227 -503 -227z" />
    <glyph glyph-name="Odieresis" unicode="&#xd6;" horiz-adv-x="1693" 
d="M911 1934q0 48 32 81t80 33t82 -33t34 -81t-34 -80t-82 -32t-80 32t-32 80zM555 1934q0 48 33 81t81 33t81 -33q32 -33 32 -81t-32 -80t-81 -32q-48 0 -81 32t-33 80zM297 786q0 -330 155 -508q156 -178 394 -178t396 180t157 506q0 324 -157 504q-156 180 -396 180
t-395 -180q-154 -174 -154 -504zM847 -43q-296 0 -505 227q-205 229 -205 601t207 600q207 229 504 229t502 -230q206 -224 206 -598t-206 -602q-207 -227 -503 -227z" />
    <glyph glyph-name="multiply" unicode="&#xd7;" horiz-adv-x="1212" 
d="M1053 350l-92 -90l-355 354l-356 -354l-90 90l354 357l-354 354l90 92l356 -356l352 354l93 -92l-355 -352z" />
    <glyph glyph-name="Oslash" unicode="&#xd8;" horiz-adv-x="1693" 
d="M1399 784q0 272 -117 455l-780 -1012q142 -127 362 -127t378 180t157 504zM848 1470q-242 0 -397 -180q-154 -174 -154 -506q0 -272 115 -452l780 1011q-139 127 -344 127zM848 -43q-248 0 -434 158l-135 -176l-107 79l147 193q-182 225 -182 585t207 589
q207 228 504 229q246 0 432 -158l137 176l107 -80l-150 -192q182 -225 182 -587t-206 -589q-207 -227 -502 -227z" />
    <glyph glyph-name="Ugrave" unicode="&#xd9;" horiz-adv-x="1513" 
d="M713 2048l161 -324h-112l-264 324h215zM201 1595h153v-1116q0 -165 107 -272t296 -107t297 108t105 271v1116h154v-1101q0 -254 -161 -396q-162 -142 -396 -141q-234 0 -396 141q-160 141 -159 396v1101z" />
    <glyph glyph-name="Uacute" unicode="&#xda;" horiz-adv-x="1513" 
d="M623 1724l161 324h215l-264 -324h-112zM201 1595h153v-1116q0 -165 107 -272t296 -107t297 108t105 271v1116h154v-1101q0 -254 -161 -396q-162 -142 -396 -141q-234 0 -396 141q-160 141 -159 396v1101z" />
    <glyph glyph-name="Ucircumflex" unicode="&#xdb;" horiz-adv-x="1513" 
d="M395 1739l334 350h51l334 -350h-168l-192 207l-191 -207h-168zM201 1595h153v-1116q0 -165 107 -272t296 -107t297 108t105 271v1116h154v-1101q0 -254 -161 -396q-162 -142 -396 -141q-234 0 -396 141q-160 141 -159 396v1101z" />
    <glyph glyph-name="Udieresis" unicode="&#xdc;" horiz-adv-x="1513" 
d="M821 1934q0 48 32 81t80 33t82 -33t34 -81t-34 -80t-82 -32t-80 32t-32 80zM465 1934q0 48 33 81t81 33q49 0 81 -33t32 -81t-33 -80t-81 -32t-80 32q-33 32 -33 80zM201 1595h153v-1116q0 -165 107 -272t296 -107t297 108t105 271v1116h154v-1101q0 -254 -161 -396
q-162 -142 -396 -141q-234 0 -396 141q-160 141 -159 396v1101z" />
    <glyph glyph-name="Yacute" unicode="&#xdd;" horiz-adv-x="1157" 
d="M434 1724l164 324h215l-264 -324h-115zM655 -25h-153v705l-488 915h179l385 -766l387 766h178l-488 -915v-705z" />
    <glyph glyph-name="Thorn" unicode="&#xde;" horiz-adv-x="1337" 
d="M786 481q160 0 233 82t73 222q0 141 -73 223t-233 82h-399v-609h399zM387 338v-363h-154v1620h154v-362h397q217 0 343 -122t125 -327q-1 -206 -126 -326t-342 -120h-397z" />
    <glyph glyph-name="germandbls" unicode="&#xdf;" horiz-adv-x="1288" 
d="M1028 446q0 170 -110 260q-111 89 -291 89h-74v129h88q137 0 213 74t76 205q0 130 -78 203t-207 73q-129 1 -204 -95t-74 -282v-1127h-150v820h-125v129h125v180q0 239 117 374q117 136 310 136t309 -112t116 -288q0 -129 -62 -226q-63 -96 -157 -120q127 -31 229 -141
q97 -109 97 -249q1 -377 -290 -487q-91 -34 -199 -34t-177 16v133q82 -16 162 -16q174 0 265 93t91 263z" />
    <glyph glyph-name="agrave" unicode="&#xe0;" horiz-adv-x="1171" 
d="M565 1595l162 -323h-115l-262 323h215zM1008 -25h-111l-35 181q-115 -199 -366 -199q-166 0 -266 89q-99 89 -99 272q0 182 142 278t397 96h192v51q0 147 -70 215q-71 68 -198 68q-213 0 -277 -217l-139 33q23 144 139 232q116 89 286 88q169 -1 286 -113
q119 -109 119 -301v-773zM283 318q0 -228 240 -228q120 0 230 104t109 320v45h-188q-197 -1 -294 -65t-97 -176z" />
    <glyph glyph-name="aacute" unicode="&#xe1;" horiz-adv-x="1171" 
d="M473 1272l162 323h215l-264 -323h-113zM1008 -25h-111l-35 181q-115 -199 -366 -199q-166 0 -266 89q-99 89 -99 272q0 182 142 278t397 96h192v51q0 147 -70 215q-71 68 -198 68q-213 0 -277 -217l-139 33q23 144 139 232q116 89 286 88q169 -1 286 -113
q119 -109 119 -301v-773zM283 318q0 -228 240 -228q120 0 230 104t109 320v45h-188q-197 -1 -294 -65t-97 -176z" />
    <glyph glyph-name="acircumflex" unicode="&#xe2;" horiz-adv-x="1171" 
d="M246 1286l332 348h51l334 -348h-166l-193 205l-192 -205h-166zM1008 -25h-111l-35 181q-115 -199 -366 -199q-166 0 -266 89q-99 89 -99 272q0 182 142 278t397 96h192v51q0 147 -70 215q-71 68 -198 68q-213 0 -277 -217l-139 33q23 144 139 232q116 89 286 88
q169 -1 286 -113q119 -109 119 -301v-773zM283 318q0 -228 240 -228q120 0 230 104t109 320v45h-188q-197 -1 -294 -65t-97 -176z" />
    <glyph glyph-name="atilde" unicode="&#xe3;" horiz-adv-x="1171" 
d="M444 1579q82 0 166 -49q88 -45 138 -45q88 0 155 82l92 -72q-86 -160 -229 -160q-80 0 -167 48t-136 49q-88 0 -156 -84l-92 71q86 160 229 160zM1008 -25h-111l-35 181q-115 -199 -366 -199q-166 0 -266 89q-99 89 -99 272q0 182 142 278t397 96h192v51q0 147 -70 215
q-71 68 -198 68q-213 0 -277 -217l-139 33q23 144 139 232q116 89 286 88q169 -1 286 -113q119 -109 119 -301v-773zM283 318q0 -228 240 -228q120 0 230 104t109 320v45h-188q-197 -1 -294 -65t-97 -176z" />
    <glyph glyph-name="adieresis" unicode="&#xe4;" horiz-adv-x="1171" 
d="M666 1480q0 48 32 82q33 34 80 34t81 -34t34 -82t-34 -80t-81 -32t-80 32q-32 32 -32 80zM309 1480q0 48 33 82t81 34t81 -34t33 -82t-33 -80t-81 -32t-81 32t-33 80zM1008 -25h-111l-35 181q-115 -199 -366 -199q-166 0 -266 89q-99 89 -99 272q0 182 142 278t397 96
h192v51q0 147 -70 215q-71 68 -198 68q-213 0 -277 -217l-139 33q23 144 139 232q116 89 286 88q169 -1 286 -113q119 -109 119 -301v-773zM283 318q0 -228 240 -228q120 0 230 104t109 320v45h-188q-197 -1 -294 -65t-97 -176z" />
    <glyph glyph-name="aring" unicode="&#xe5;" horiz-adv-x="1171" 
d="M596 1368q51 0 84 34t33 88t-33 89t-84 35t-85 -36t-34 -89t34 -87t85 -34zM819 1490q0 -96 -63 -158t-161 -62t-161 63t-63 157t63 159t160 65t161 -64t64 -160zM1008 -25h-111l-35 181q-115 -199 -366 -199q-166 0 -266 89q-99 89 -99 272q0 182 142 278t397 96h192v51
q0 147 -70 215q-71 68 -198 68q-213 0 -277 -217l-139 33q23 144 139 232q116 89 286 88q169 -1 286 -113q119 -109 119 -301v-773zM283 318q0 -228 240 -228q120 0 230 104t109 320v45h-188q-197 -1 -294 -65t-97 -176z" />
    <glyph glyph-name="ae" unicode="&#xe6;" horiz-adv-x="2011" 
d="M1388 1026q-148 0 -241 -93q-94 -93 -125 -241h723q-23 156 -116 245t-241 89zM283 318q0 -228 240 -228q120 0 230 104t109 320v45h-188q-197 -1 -294 -65t-97 -176zM1892 559h-878q0 -208 98 -339q99 -130 270 -130q129 0 213 60t144 182l129 -53q-91 -174 -204 -248
t-275 -74q-163 0 -283 79t-176 214q-53 -147 -168 -220t-274 -73t-258 89t-99 272q0 182 142 278t397 96h192v51q0 147 -70 215q-71 68 -198 68q-213 0 -277 -217l-139 33q23 144 139 232q116 89 262 88t246 -61t148 -165q145 225 409 225q225 0 367 -149q143 -145 143 -389
v-64z" />
    <glyph glyph-name="ccedilla" unicode="&#xe7;" horiz-adv-x="1222" 
d="M780 -164l-188 -356l-166 71l227 285h127zM645 -43q-246 0 -381 177t-135 423t137 425t379 179q348 0 471 -323l-131 -50q-94 238 -340 238q-182 0 -272 -135q-94 -133 -93 -335t93 -334t272 -132q244 0 340 240l131 -51q-123 -322 -471 -322z" />
    <glyph glyph-name="egrave" unicode="&#xe8;" horiz-adv-x="1277" 
d="M635 1595l162 -323h-115l-262 323h215zM656 1026q-148 0 -243 -93t-124 -241h723q-23 156 -116 245q-92 89 -240 89zM1159 559h-878q0 -208 98 -339q99 -130 268 -130q132 0 215 60q82 60 146 192l127 -63q-132 -253 -334 -305q-70 -17 -154 -17q-231 0 -375 168
q-143 174 -143 433t143 431q146 172 374 172q228 1 370 -149t143 -389v-64z" />
    <glyph glyph-name="eacute" unicode="&#xe9;" horiz-adv-x="1277" 
d="M475 1272l162 323h215l-264 -323h-113zM656 1026q-148 0 -243 -93t-124 -241h723q-23 156 -116 245q-92 89 -240 89zM1159 559h-878q0 -208 98 -339q99 -130 268 -130q132 0 215 60q82 60 146 192l127 -63q-132 -253 -334 -305q-70 -17 -154 -17q-231 0 -375 168
q-143 174 -143 433t143 431q146 172 374 172q228 1 370 -149t143 -389v-64z" />
    <glyph glyph-name="ecircumflex" unicode="&#xea;" horiz-adv-x="1277" 
d="M289 1286l334 348h51l334 -348h-168l-193 205l-190 -205h-168zM656 1026q-148 0 -243 -93t-124 -241h723q-23 156 -116 245q-92 89 -240 89zM1159 559h-878q0 -208 98 -339q99 -130 268 -130q132 0 215 60q82 60 146 192l127 -63q-132 -253 -334 -305q-70 -17 -154 -17
q-231 0 -375 168q-143 174 -143 433t143 431q146 172 374 172q228 1 370 -149t143 -389v-64z" />
    <glyph glyph-name="edieresis" unicode="&#xeb;" horiz-adv-x="1277" 
d="M727 1480q0 48 32 82t80 34t82 -34q33 -34 33 -82t-34 -80t-81 -32q-48 0 -80 32t-32 80zM371 1480q0 48 32 82q33 34 81 34t81 -34t33 -82t-33 -80t-81 -32t-81 32q-32 32 -32 80zM656 1026q-148 0 -243 -93t-124 -241h723q-23 156 -116 245q-92 89 -240 89zM1159 559
h-878q0 -208 98 -339q99 -130 268 -130q132 0 215 60q82 60 146 192l127 -63q-132 -253 -334 -305q-70 -17 -154 -17q-231 0 -375 168q-143 174 -143 433t143 431q146 172 374 172q228 1 370 -149t143 -389v-64z" />
    <glyph glyph-name="igrave" unicode="&#xec;" horiz-adv-x="647" 
d="M279 1595l161 -323h-114l-263 323h216zM254 1143h143v-1168h-143v1168z" />
    <glyph glyph-name="iacute" unicode="&#xed;" horiz-adv-x="647" 
d="M225 1272l162 323h215l-264 -323h-113zM254 1143h143v-1168h-143v1168z" />
    <glyph glyph-name="icircumflex" unicode="&#xee;" horiz-adv-x="647" 
d="M-35 1286l334 348h51l332 -348h-166l-192 205l-193 -205h-166zM254 1143h143v-1168h-143v1168z" />
    <glyph glyph-name="idieresis" unicode="&#xef;" horiz-adv-x="647" 
d="M393 1480q0 48 32 82t80 34t82 -34t34 -82t-34 -80t-82 -32t-80 32t-32 80zM37 1480q0 48 33 82t81 34q49 0 81 -34t32 -82t-33 -80t-81 -32t-80 32q-33 32 -33 80zM254 1143h143v-1168h-143v1168z" />
    <glyph glyph-name="eth" unicode="&#xf0;" horiz-adv-x="1329" 
d="M666 1026q-184 0 -285 -137q-100 -137 -100 -331t100 -331q99 -137 283 -137t284 137t101 332q0 195 -101 328q-98 139 -282 139zM1198 559q0 -246 -145 -424t-388 -178t-391 178q-145 182 -145 425t146 422t389 179q193 0 315 -133q-61 184 -309 373l-103 -150l-98 70
l102 147q-92 59 -186 97l66 100q53 -24 190 -94l88 129l96 -70l-84 -125q237 -162 347 -393t110 -553z" />
    <glyph glyph-name="ntilde" unicode="&#xf1;" horiz-adv-x="1333" 
d="M522 1579q84 0 168 -47t135 -47q92 0 156 82l92 -72q-86 -160 -229 -160q-80 0 -168 47q-84 49 -135 50q-88 0 -154 -84l-92 71q86 160 227 160zM1124 -25h-143v783q0 268 -238 268q-164 0 -271 -148t-105 -391v-512h-146v1168h146v-244q59 119 167 191t232 71
q168 0 263 -100t95 -285v-801z" />
    <glyph glyph-name="ograve" unicode="&#xf2;" horiz-adv-x="1351" 
d="M643 1595l162 -323h-113l-264 323h215zM281 557q1 -191 107 -329t289 -138t289 138t105 330q0 192 -105 330q-104 138 -288 138t-293 -139q-104 -139 -104 -330zM129 559q0 240 152 420q147 182 395 182t395 -182q152 -180 152 -420q1 -240 -149 -421t-398 -181t-398 181
t-149 421z" />
    <glyph glyph-name="oacute" unicode="&#xf3;" horiz-adv-x="1351" 
d="M504 1272l162 323h217l-265 -323h-114zM281 557q1 -191 107 -329t289 -138t289 138t105 330q0 192 -105 330q-104 138 -288 138t-293 -139q-104 -139 -104 -330zM129 559q0 240 152 420q147 182 395 182t395 -182q152 -180 152 -420q1 -240 -149 -421t-398 -181t-398 181
t-149 421z" />
    <glyph glyph-name="ocircumflex" unicode="&#xf4;" horiz-adv-x="1351" 
d="M317 1286l334 348h49l334 -348h-166l-192 205l-193 -205h-166zM281 557q1 -191 107 -329t289 -138t289 138t105 330q0 192 -105 330q-104 138 -288 138t-293 -139q-104 -139 -104 -330zM129 559q0 240 152 420q147 182 395 182t395 -182q152 -180 152 -420
q1 -240 -149 -421t-398 -181t-398 181t-149 421z" />
    <glyph glyph-name="otilde" unicode="&#xf5;" horiz-adv-x="1351" 
d="M516 1579q82 0 166 -49q88 -45 137 -45q88 0 156 82l92 -72q-86 -160 -229 -160q-80 0 -167 48t-136 49q-88 0 -156 -84l-92 71q86 160 229 160zM281 557q1 -191 107 -329t289 -138t289 138t105 330q0 192 -105 330q-104 138 -288 138t-293 -139q-104 -139 -104 -330z
M129 559q0 240 152 420q147 182 395 182t395 -182q152 -180 152 -420q1 -240 -149 -421t-398 -181t-398 181t-149 421z" />
    <glyph glyph-name="odieresis" unicode="&#xf6;" horiz-adv-x="1351" 
d="M741 1480q0 48 32 82t79 34t81 -34t34 -82t-34 -80t-81 -32t-79 32t-32 80zM385 1480q0 48 32 82t81 34t81 -34q31 -34 31 -82t-32 -80t-80 -32q-49 0 -81 32t-32 80zM281 557q1 -191 107 -329t289 -138t289 138t105 330q0 192 -105 330q-104 138 -288 138t-293 -139
q-104 -139 -104 -330zM129 559q0 240 152 420q147 182 395 182t395 -182q152 -180 152 -420q1 -240 -149 -421t-398 -181t-398 181t-149 421z" />
    <glyph glyph-name="divide" unicode="&#xf7;" horiz-adv-x="1179" 
d="M115 645v129h950v-129h-950zM469 1132q0 50 33 85q35 35 85 35t85 -36q35 -34 35 -84t-35 -84t-85 -34t-85 33q-33 35 -33 85zM469 286q0 50 34 84t84 34t85 -34t35 -84t-35 -85t-85 -35t-85 35q-33 35 -33 85z" />
    <glyph glyph-name="oslash" unicode="&#xf8;" horiz-adv-x="1351" 
d="M281 565q0 -182 77 -301l545 688q-98 74 -227 74q-182 0 -291 -139q-104 -140 -104 -322zM676 90q184 0 290 138t105 326q0 188 -78 298l-544 -686q100 -76 227 -76zM129 559q0 240 152 420q147 182 395 182q178 0 309 -100l131 164l107 -80l-140 -176q139 -174 139 -412
t-148 -419q-150 -181 -398 -181q-182 0 -309 100l-131 -166l-107 82l139 177q-139 169 -139 409z" />
    <glyph glyph-name="ugrave" unicode="&#xf9;" 
d="M659 1595l162 -323h-112l-265 323h215zM209 1143h143v-783q0 -270 238 -270q162 0 268 150q109 150 109 391v512h143v-1168h-143v244q-59 -119 -167 -191t-233 -71q-168 0 -263 100t-95 285v801z" />
    <glyph glyph-name="uacute" unicode="&#xfa;" 
d="M500 1272l162 323h215l-265 -323h-112zM209 1143h143v-783q0 -270 238 -270q162 0 268 150q109 150 109 391v512h143v-1168h-143v244q-59 -119 -167 -191t-233 -71q-168 0 -263 100t-95 285v801z" />
    <glyph glyph-name="ucircumflex" unicode="&#xfb;" 
d="M305 1286l334 348h51l332 -348h-166l-192 205l-191 -205h-168zM209 1143h143v-783q0 -270 238 -270q162 0 268 150q109 150 109 391v512h143v-1168h-143v244q-59 -119 -167 -191t-233 -71q-168 0 -263 100t-95 285v801z" />
    <glyph glyph-name="udieresis" unicode="&#xfc;" 
d="M733 1480q0 48 32 82t80 34t82 -34t34 -82t-34 -80t-82 -32t-80 32t-32 80zM377 1480q0 48 33 82t81 34q49 0 81 -34t32 -82t-33 -80t-81 -32t-80 32q-33 32 -33 80zM209 1143h143v-783q0 -270 238 -270q162 0 268 150q109 150 109 391v512h143v-1168h-143v244
q-59 -119 -167 -191t-233 -71q-168 0 -263 100t-95 285v801z" />
    <glyph glyph-name="yacute" unicode="&#xfd;" horiz-adv-x="1046" 
d="M399 1272l164 323h215l-264 -323h-115zM860 1143h152l-580 -1641h-143l170 480l-420 1161h151l347 -946z" />
    <glyph glyph-name="thorn" unicode="&#xfe;" horiz-adv-x="1386" 
d="M730 1026q-178 0 -279 -131q-97 -133 -97 -340t99 -336t275 -129t277 128t101 336t-98 341q-100 131 -278 131zM225 1614h148v-637q63 83 163 133q100 51 199 51q246 0 384 -171t138 -431t-137 -431t-385 -171q-169 0 -301 105q-39 32 -61 67v-627h-148v2112z" />
    <glyph glyph-name="ydieresis" unicode="&#xff;" horiz-adv-x="1046" 
d="M602 1480q0 48 32 82t80 34t82 -34t34 -82t-34 -80t-82 -32t-80 32t-32 80zM359 1368q-49 0 -81 32t-32 80t33 82t81 34t80 -34q33 -34 33 -82t-33 -80t-81 -32zM860 1143h152l-580 -1641h-143l170 480l-420 1161h151l347 -946z" />
    <glyph glyph-name="dotlessi" unicode="&#x131;" horiz-adv-x="647" 
d="M252 1143h143v-1168h-143v1168z" />
    <glyph glyph-name="Lslash" unicode="&#x141;" horiz-adv-x="1191" 
d="M233 1595h154v-747l295 172l63 -109l-358 -206v-586h758v-144h-912v643l-165 -96l-56 109l221 131v833z" />
    <glyph glyph-name="lslash" unicode="&#x142;" horiz-adv-x="749" 
d="M297 1614h143v-682l178 98l62 -108l-240 -134v-813h-143v734l-178 -99l-64 109l242 133v762z" />
    <glyph glyph-name="OE" unicode="&#x152;" horiz-adv-x="2486" 
d="M297 786q0 -330 155 -508q156 -178 394 -178t396 180t157 506q0 324 -157 504q-156 180 -396 180t-395 -180q-154 -174 -154 -504zM1405 1595h913v-143h-762v-541h623v-145h-623v-647h787v-144h-938v279q-99 -141 -245 -219t-312 -78q-297 0 -506 227q-205 229 -205 601
t207 600t504 229q166 0 312 -78t245 -219v278z" />
    <glyph glyph-name="oe" unicode="&#x153;" horiz-adv-x="2220" 
d="M1598 1026q-148 0 -242 -93t-123 -241h721q-23 156 -116 245q-92 89 -240 89zM281 557q1 -191 107 -329t289 -138t289 138t105 330q0 192 -105 330q-104 138 -288 138t-293 -139q-104 -139 -104 -330zM2101 559h-878v-20q4 -204 103 -327q99 -122 263 -122q131 0 215 60
t142 182l131 -53q-132 -253 -334 -305q-70 -17 -154 -17q-151 0 -267 75t-181 208q-72 -131 -191 -207t-274 -76q-248 0 -398 181t-149 421q0 240 152 420q147 182 395 182q156 0 274 -77t191 -205q65 133 181 207t267 75q227 1 369 -149t143 -389v-64z" />
    <glyph glyph-name="Scaron" unicode="&#x160;" horiz-adv-x="1171" 
d="M557 1739l-332 350h166l193 -207l192 207h166l-334 -350h-51zM573 1470q-103 0 -162 -68t-60 -172t72 -178t158 -111q85 -38 206 -99q268 -136 268 -410q0 -217 -130 -346t-326 -129t-328 119t-175 319l133 78q49 -174 130 -273q81 -100 227 -100t227 84q82 84 82 242
q0 196 -248 313q-208 93 -287 157q-166 134 -165 314q2 181 110 293q111 111 268 111q244 0 352 -177q19 -32 42 -73l-125 -78q-96 184 -269 184z" />
    <glyph glyph-name="scaron" unicode="&#x161;" horiz-adv-x="1040" 
d="M506 1286l-332 348h166l192 -204l193 204h166l-334 -348h-51zM532 1161q195 0 324 -182l-102 -88q-96 135 -228 135q-78 0 -125 -49t-47 -121t56 -118t128 -75q70 -29 134 -57q236 -102 235 -277q0 -175 -97 -273t-261 -99q-164 0 -272 88t-152 231l127 68
q44 -122 110 -188t176 -66t165 55t55 141t-56 136q-56 51 -128 78q-180 69 -239 112q-128 92 -128 233t92 228q92 88 233 88z" />
    <glyph glyph-name="Ydieresis" unicode="&#x178;" horiz-adv-x="1157" 
d="M643 1934q0 48 32 81t80 33t82 -33q33 -33 33 -81t-34 -80t-81 -32q-48 0 -80 32t-32 80zM287 1934q0 48 32 81q33 33 81 33t81 -33t33 -81t-33 -80t-81 -32t-81 32q-32 32 -32 80zM655 -25h-153v705l-488 915h179l385 -766l387 766h178l-488 -915v-705z" />
    <glyph glyph-name="Zcaron" unicode="&#x17d;" horiz-adv-x="1267" 
d="M627 1739l-332 350h166l192 -207l191 207h168l-334 -350h-51zM139 1452v143h989v-73l-804 -1403h821v-144h-1034v74l815 1403h-787z" />
    <glyph glyph-name="zcaron" unicode="&#x17e;" horiz-adv-x="1054" 
d="M504 1286l-332 348h166l192 -204l193 204h166l-334 -348h-51zM158 1008v135h755v-80l-587 -952h614v-136h-811v70l596 963h-567z" />
    <glyph glyph-name="florin" unicode="&#x192;" horiz-adv-x="1083" 
d="M946 1614q94 0 141 -31l-55 -131q-51 27 -117 27q-203 0 -251 -240l-19 -96h283l-27 -135h-283l-219 -1125q-41 -217 -142 -308t-277 -91q-100 0 -152 31l57 133q57 -29 115 -29q111 0 168 57t84 185l223 1147h-209l29 135h207l14 74q40 215 146 306t284 91z" />
    <glyph glyph-name="circumflex" unicode="&#x2c6;" horiz-adv-x="856" 
d="M70 1286l333 348h50l333 -348h-165l-193 205l-192 -205h-166z" />
    <glyph glyph-name="caron" unicode="&#x2c7;" horiz-adv-x="856" 
d="M403 1286l-333 348h166l192 -204l193 204h165l-333 -348h-50z" />
    <glyph glyph-name="breve" unicode="&#x2d8;" horiz-adv-x="552" 
d="M512 1595q0 -113 -65 -183t-177 -69q-112 0 -180 70q-66 70 -65 182h118q0 -61 33 -99t92 -38q125 0 125 137h119z" />
    <glyph glyph-name="dotaccent" unicode="&#x2d9;" horiz-adv-x="577" 
d="M170 1478q0 50 34 84t84 34t85 -34t35 -84t-35 -85t-85 -35t-85 35q-33 35 -33 85z" />
    <glyph glyph-name="ring" unicode="&#x2da;" horiz-adv-x="540" 
d="M271 1368q52 0 85 34t33 88t-33 89t-85 35t-85 -36q-32 -36 -32 -89t32 -87t85 -34zM432 1650q64 -65 64 -159q0 -93 -64 -157t-162 -64q-99 0 -161 64t-62 156q-1 93 63 159q64 65 161 65t161 -64z" />
    <glyph glyph-name="ogonek" unicode="&#x2db;" horiz-adv-x="481" 
d="M158 -348q0 -76 75 -76q61 0 134 96l90 -71q-63 -84 -115 -120t-134 -36q-81 0 -130 48t-49 130q0 121 131 213h127q-129 -117 -129 -184z" />
    <glyph glyph-name="tilde" unicode="&#x2dc;" horiz-adv-x="872" 
d="M274 1579q84 0 168 -49q90 -45 136 -45q92 0 155 82l92 -72q-86 -160 -227 -160q-82 0 -170 47q-84 49 -133 50q-90 0 -156 -84l-92 71q86 160 227 160z" />
    <glyph glyph-name="hungarumlaut" unicode="&#x2dd;" horiz-adv-x="825" 
d="M410 1272l161 323h215l-264 -323h-112zM57 1272l162 323h215l-262 -323h-115z" />
    <glyph glyph-name="uni2206" unicode="&#x394;" horiz-adv-x="1710" 
d="M856 1538l-489 -1434h979zM154 -49v41l614 1790h174l614 -1790v-41h-1402z" />
    <glyph glyph-name="uni2206" unicode="&#x2206;" horiz-adv-x="1710" 
d="M856 1538l-489 -1434h979zM154 -49v41l614 1790h174l614 -1790v-41h-1402z" />
    <glyph glyph-name="uni2126" unicode="&#x3a9;" horiz-adv-x="1783" 
d="M209 -49v145h360q-6 12 -14 24t-19 36q-11 23 -48 98t-85 196t-84 264q-57 224 -57 388q0 311 171 506q171 194 458 194t459 -196q174 -193 174 -504q0 -419 -289 -961q-8 -14 -13 -25t-10 -20h361v-145h-547v49q6 12 14 26t20 40q11 25 52 114t90 230q50 140 91 338
q40 198 40 340q0 270 -121 420q-121 149 -320 149t-322 -151t-122 -394q2 -469 265 -1024q17 -40 30 -58q13 -19 17 -30v-49h-551z" />
    <glyph glyph-name="uni2126" unicode="&#x2126;" horiz-adv-x="1783" 
d="M209 -49v145h360q-6 12 -14 24t-19 36q-11 23 -48 98t-85 196t-84 264q-57 224 -57 388q0 311 171 506q171 194 458 194t459 -196q174 -193 174 -504q0 -419 -289 -961q-8 -14 -13 -25t-10 -20h361v-145h-547v49q6 12 14 26t20 40q11 25 52 114t90 230q50 140 91 338
q40 198 40 340q0 270 -121 420q-121 149 -320 149t-322 -151t-122 -394q2 -469 265 -1024q17 -40 30 -58q13 -19 17 -30v-49h-551z" />
    <glyph glyph-name="pi" unicode="&#x3c0;" horiz-adv-x="1372" 
d="M129 1012v131h1114v-131h-207v-1037h-143v1037h-414v-1037h-143v1037h-207z" />
    <glyph glyph-name="uni2000" unicode="&#x2000;" horiz-adv-x="1093" 
 />
    <glyph glyph-name="uni2001" unicode="&#x2001;" horiz-adv-x="2191" 
 />
    <glyph glyph-name="uni2002" unicode="&#x2002;" horiz-adv-x="1093" 
 />
    <glyph glyph-name="uni2003" unicode="&#x2003;" horiz-adv-x="2191" 
 />
    <glyph glyph-name="uni2004" unicode="&#x2004;" horiz-adv-x="729" 
 />
    <glyph glyph-name="uni2005" unicode="&#x2005;" horiz-adv-x="546" 
 />
    <glyph glyph-name="uni2006" unicode="&#x2006;" horiz-adv-x="362" 
 />
    <glyph glyph-name="uni2007" unicode="&#x2007;" horiz-adv-x="362" 
 />
    <glyph glyph-name="uni2008" unicode="&#x2008;" horiz-adv-x="272" 
 />
    <glyph glyph-name="uni2009" unicode="&#x2009;" horiz-adv-x="438" 
 />
    <glyph glyph-name="uni200A" unicode="&#x200a;" horiz-adv-x="120" 
 />
    <glyph glyph-name="uni2010" unicode="&#x2010;" horiz-adv-x="1089" 
d="M164 645v129h762v-129h-762z" />
    <glyph glyph-name="uni2011" unicode="&#x2011;" horiz-adv-x="1089" 
d="M164 645v129h762v-129h-762z" />
    <glyph glyph-name="endash" unicode="&#x2013;" horiz-adv-x="1288" 
d="M166 645v129h948v-129h-948z" />
    <glyph glyph-name="emdash" unicode="&#x2014;" horiz-adv-x="1763" 
d="M166 645v129h1421v-129h-1421z" />
    <glyph glyph-name="quoteleft" unicode="&#x2018;" horiz-adv-x="636" 
d="M377 1614l141 -426h-112l-267 426h238z" />
    <glyph glyph-name="quoteright" unicode="&#x2019;" horiz-adv-x="636" 
d="M119 1188l141 426h238l-267 -426h-112z" />
    <glyph glyph-name="quotesinglbase" unicode="&#x201a;" horiz-adv-x="636" 
d="M119 -57l141 426h238l-267 -426h-112z" />
    <glyph glyph-name="quotedblleft" unicode="&#x201c;" horiz-adv-x="966" 
d="M377 1614l141 -426h-112l-267 426h238zM709 1614l141 -426h-115l-266 426h240z" />
    <glyph glyph-name="quotedblright" unicode="&#x201d;" horiz-adv-x="966" 
d="M449 1188l141 426h239l-266 -426h-114zM119 1188l141 426h238l-267 -426h-112z" />
    <glyph glyph-name="quotedblbase" unicode="&#x201e;" horiz-adv-x="966" 
d="M449 -57l141 426h239l-266 -426h-114zM119 -57l141 426h238l-267 -426h-112z" />
    <glyph glyph-name="dagger" unicode="&#x2020;" horiz-adv-x="1064" 
d="M150 1012v131h313v567h139v-567h311v-131h-311v-1151h-139v1151h-313z" />
    <glyph glyph-name="daggerdbl" unicode="&#x2021;" horiz-adv-x="1064" 
d="M150 1012v131h313v567h139v-567h311v-131h-311v-453h311v-131h-311v-567h-139v567h-313v131h313v453h-313z" />
    <glyph glyph-name="bullet" unicode="&#x2022;" horiz-adv-x="704" 
d="M203 739q0 63 43 107t105 43q63 0 107 -43q44 -42 44 -106t-44 -107t-106 -43t-106 43q-43 43 -43 106z" />
    <glyph glyph-name="ellipsis" unicode="&#x2026;" horiz-adv-x="1800" 
d="M1354 87q0 52 34 86t84 34t84 -34t33 -84q0 -50 -34 -84q-33 -34 -83 -34t-84 32t-34 84zM782 81q0 85 74 117q75 32 127 -26q57 -53 26 -127t-116 -74q-45 0 -78 32t-33 78zM211 87q0 52 34 86t84 34t84 -34q33 -34 33 -84t-34 -84t-83 -34q-50 0 -84 32t-34 84z" />
    <glyph glyph-name="uni202F" unicode="&#x202f;" horiz-adv-x="438" 
 />
    <glyph glyph-name="perthousand" unicode="&#x2030;" horiz-adv-x="2879" 
d="M2374 82q108 0 174 70q64 70 64 175t-66 177q-66 70 -172 70t-176 -70q-64 -70 -64 -178t66 -176t174 -68zM2009 326q0 154 103 264q104 110 260 108q156 0 260 -110t104 -264t-102 -260t-262 -107t-262 107q-101 108 -101 262zM1554 1651l99 -76l-1256 -1655l-96 76z
M1448 82q108 0 174 70q64 70 64 175t-66 176t-172 71t-176 -70q-64 -70 -64 -178t66 -176t174 -68zM1446 -43q-160 -1 -261 107t-101 262t102 264q104 110 260 108q156 0 260 -110t104 -264t-102 -260t-262 -107zM268 1244q0 -110 66 -178t174 -69q108 0 172 69
q66 68 66 178t-66 175q-63 70 -173 70t-173 -70q-66 -65 -66 -175zM507 1614q157 0 260 -109t103 -265t-102 -261q-102 -106 -260 -106t-262 106q-102 109 -102 263t102 264q104 108 261 108z" />
    <glyph glyph-name="guilsinglleft" unicode="&#x2039;" horiz-adv-x="862" 
d="M115 645v96l610 451v-156l-459 -344l459 -342v-157z" />
    <glyph glyph-name="guilsinglright" unicode="&#x203a;" horiz-adv-x="862" 
d="M748 741v-96l-609 -452v157l459 342l-459 344v156z" />
    <glyph glyph-name="fraction" unicode="&#x2044;" horiz-adv-x="1406" 
d="M1282 1651l96 -76l-1253 -1655l-96 76z" />
    <glyph glyph-name="uni205F" unicode="&#x205f;" horiz-adv-x="546" 
 />
    <glyph glyph-name="uni2070" unicode="&#x2070;" horiz-adv-x="890" 
d="M448 1493q-98 0 -157 -92q-55 -92 -55 -268t55 -269q59 -92 157 -92t152 92q57 90 57 268t-57 269q-54 92 -152 92zM446 1606q158 0 246 -131q90 -138 89 -347q-1 -210 -88 -340t-248 -129q-161 0 -246 129q-88 129 -88 340t88 345q89 133 247 133z" />
    <glyph glyph-name="uni2074" unicode="&#x2074;" horiz-adv-x="782" 
d="M477 973v450l-235 -450h235zM477 670v192h-395v39l375 694h135v-622h121v-111h-121v-192h-115z" />
    <glyph glyph-name="uni2075" unicode="&#x2075;" horiz-adv-x="770" 
d="M399 772q86 0 131 52t45 149q0 203 -176 203q-109 0 -180 -103l-82 19l47 503h461v-110h-360l-31 -266q61 63 179 63t193 -81q74 -81 74 -227t-80 -231q-82 -84 -208 -84t-204 67t-93 189l114 21q35 -164 170 -164z" />
    <glyph glyph-name="uni2076" unicode="&#x2076;" horiz-adv-x="843" 
d="M250 968q0 -88 48 -142t130 -54t129 54t47 142t-46 139q-46 50 -130 50t-131 -51t-47 -138zM442 1270q131 0 209 -83t78 -218t-83 -222q-83 -88 -217 -88t-220 88t-84 220q0 94 55 196l252 443h125l-211 -361q24 25 96 25z" />
    <glyph glyph-name="uni2077" unicode="&#x2077;" horiz-adv-x="679" 
d="M106 1485v110h529v-51l-361 -874h-124l335 815h-379z" />
    <glyph glyph-name="uni2078" unicode="&#x2078;" horiz-adv-x="819" 
d="M266 1362q0 -64 39 -104t105 -40t104 40q38 38 39 103q0 65 -39 103q-38 38 -104 39q-66 -1 -105 -39t-39 -102zM246 943q0 -77 43 -124t121 -47t120 47t43 124q0 77 -43 121q-42 44 -120 44t-121 -44t-43 -121zM410 1606q114 0 184 -68t70 -189q0 -122 -109 -182
q63 -23 103 -81t40 -134q0 -139 -80 -215t-207 -77t-210 77q-82 78 -80 205q0 86 40 144t103 81q-108 59 -108 181t70 190t184 68z" />
    <glyph glyph-name="uni2079" unicode="&#x2079;" horiz-adv-x="843" 
d="M594 1297q0 87 -47 141t-130 55q-83 0 -129 -54q-46 -55 -46 -143t45 -138t130 -50t131 51t46 138zM403 995q-131 0 -209 83t-79 217q0 134 82 223q84 88 217 88q134 0 220 -87t85 -221q0 -96 -55 -196l-252 -443h-125l211 361q-25 -25 -95 -25z" />
    <glyph glyph-name="Euro" unicode="&#x20ac;" horiz-adv-x="1417" 
d="M872 1614q289 0 443 -268l-127 -70q-98 209 -316 209q-182 0 -298 -121t-150 -344h596l-66 -131h-542v-207h608l-66 -131h-530q34 -223 150 -344t298 -121q217 0 316 209l127 -70q-154 -268 -443 -268q-246 0 -404 160t-196 434h-190l65 131h117v207h-182l65 131h125
q37 275 195 434q159 160 405 160z" />
    <glyph glyph-name="trademark" unicode="&#x2122;" horiz-adv-x="1875" 
d="M887 1595h121l272 -653l272 653h121v-925h-112v682l-248 -596h-66l-248 596v-682h-112v925zM70 1493v102h641v-102h-265v-823h-112v823h-264z" />
    <glyph glyph-name="partialdiff" unicode="&#x2202;" horiz-adv-x="1370" 
d="M729 1026q-211 0 -336 -170t-125 -399q0 -159 85 -263t220 -104q215 0 353 170t137 397q0 173 -87 271t-247 98zM711 1614q248 0 380 -209t132 -587t-159 -607q-109 -157 -293 -222q-91 -32 -198 -32q-203 0 -329 137q-129 135 -129 359q0 289 174 499q178 209 461 209
q152 0 264 -80q35 -25 55 -53q-23 209 -121 330t-254 121q-190 0 -297 -207l-149 39q63 139 180 221t283 82z" />
    <glyph glyph-name="product" unicode="&#x220f;" horiz-adv-x="1251" 
d="M217 -25v1620h817v-1620h-143v1491h-531v-1491h-143z" />
    <glyph glyph-name="summation" unicode="&#x2211;" horiz-adv-x="1253" 
d="M139 1595h963v-129h-746l424 -661v-39l-424 -662h746v-129h-963v35l498 774l-498 777v34z" />
    <glyph glyph-name="minus" unicode="&#x2212;" horiz-adv-x="1259" 
d="M160 645v129h948v-129h-948z" />
    <glyph glyph-name="radical" unicode="&#x221a;" horiz-adv-x="1277" 
d="M139 745v132h307l216 -652l421 1389h129l-497 -1639h-109l-250 770h-217z" />
    <glyph glyph-name="infinity" unicode="&#x221e;" horiz-adv-x="2027" 
d="M1442 494q139 0 221 83t82 230t-82 229t-221 82q-209 0 -367 -311q156 -313 367 -313zM586 494q211 0 364 313q-154 311 -364 311q-141 0 -222 -82t-81 -229t81 -230t222 -83zM1473 365q-254 0 -459 307q-207 -307 -459 -307q-190 1 -303 121t-113 320t114 320t302 121
q254 0 459 -307q205 307 459 307q184 0 301 -121q114 -126 114 -322t-116 -318t-299 -121z" />
    <glyph glyph-name="integral" unicode="&#x222b;" horiz-adv-x="1083" 
d="M946 1614q94 0 141 -31l-55 -131q-51 27 -117 27q-203 0 -251 -240l-265 -1356q-41 -217 -142 -308t-277 -91q-100 0 -152 31l57 133q57 -29 115 -29q111 0 168 57t84 185l264 1356q40 215 146 306t284 91z" />
    <glyph glyph-name="approxequal" unicode="&#x2248;" horiz-adv-x="1323" 
d="M444 1128q90 0 210 -62t206 -62q123 0 209 104l92 -92q-131 -180 -282 -180q-86 0 -209 62t-207 63q-119 0 -209 -103l-92 90q131 180 282 180zM860 541q123 0 209 104l92 -92q-131 -180 -282 -180q-86 0 -209 62t-207 63q-119 0 -209 -103l-92 90q131 180 282 181
q90 0 210 -62t206 -63z" />
    <glyph glyph-name="notequal" unicode="&#x2260;" horiz-adv-x="1284" 
d="M195 819v131h520l147 256l113 -63l-113 -193h228v-131h-302l-145 -254h447v-129h-521l-147 -258l-113 66l113 192h-227v129h301l145 254h-446z" />
    <glyph glyph-name="lessequal" unicode="&#x2264;" horiz-adv-x="1226" 
d="M215 827v158l774 416v-144l-655 -352l655 -352v-143zM129 -25v129h946v-129h-946z" />
    <glyph glyph-name="greaterequal" unicode="&#x2265;" horiz-adv-x="1226" 
d="M1012 985v-158l-774 -417v143l655 352l-655 352v144zM1098 104v-129h-948v129h948z" />
    <glyph glyph-name="lozenge" unicode="&#x25ca;" horiz-adv-x="1296" 
d="M647 123l342 661l-342 664l-340 -664zM575 -25l-415 809l415 811h144l418 -811l-418 -809h-144z" />
    <glyph glyph-name="uniFB01" unicode="&#xfb01;" horiz-adv-x="1245" 
d="M115 1008v135h186v37q0 202 130 318t323 116q147 0 256 -68l-31 -131q-113 63 -239 63t-211 -75q-85 -76 -85 -201v-59h611v-1168h-144v1033h-467v-1033h-143v1033h-186z" />
    <glyph glyph-name="uniFB02" unicode="&#xfb02;" horiz-adv-x="1345" 
d="M115 1008v135h182v74q0 397 360 397h484v-1639h-144v1504h-352q-205 0 -205 -240v-96h283v-135h-283v-1033h-143v1033h-182z" />
    <glyph glyph-name="NULL" horiz-adv-x="0" 
 />
    <glyph glyph-name="CR.001" horiz-adv-x="583" 
 />
    <glyph glyph-name="apple" horiz-adv-x="1837" 
d="M1503 94v953q-86 -139 -225 -225t-309 -101v-473zM334 94l534 154v473q-170 14 -310 100t-224 226v-953zM969 1524v-701q215 14 367 172t165 373zM868 1524l-532 -156q12 -215 165 -373t367 -172v701zM1604 27q0 -23 -18 -40t-50 -10l-616 179l-619 -179q-7 -2 -23 -2
q-16 1 -30 15t-15 37v1376q0 41 37 51l625 180q23 10 47 0l625 -180q37 -10 37 -51v-1376z" />
    <glyph glyph-name="No" horiz-adv-x="2809" 
d="M1739 1011q0 -187 102 -327q111 -139 294 -139t289 138q106 139 105 329q0 190 -105 328q-104 138 -288 138t-295 -137q-102 -143 -102 -330zM1587 1012q-1 240 149 421t397 181t397 -181t151 -421q0 -240 -152 -421q-151 -181 -397 -181t-393 182q-152 180 -152 420z
M1661 -25v129h948v-129h-948zM1217 1595h153v-1620h-180l-803 1373v-1373h-154v1620h181l803 -1376v1376z" />
    <glyph glyph-name="zero.tn" 
d="M654 1485q-192 0 -300 -193t-108 -507q0 -315 108 -507t302 -192q192 0 300 193t109 507q0 314 -109 506q-110 193 -302 193zM655 1614q273 0 415 -225t142 -605t-142 -603q-142 -224 -416 -224t-416 221q-141 226 -141 608t142 605t416 223z" />
    <glyph glyph-name="one.tn" 
d="M791 1595v-1620h-144v1375l-268 -168v176l375 237h37z" />
    <glyph glyph-name="two.tn" 
d="M178 -25v54l590 764q121 158 145 217q35 72 35 194t-76 201q-76 80 -203 80t-215 -92t-108 -236l-133 27q18 188 139 309t313 121t313 -116q120 -116 120 -307t-197 -446l-495 -641h731v-129h-959z" />
    <glyph glyph-name="three.tn" 
d="M709 983q186 0 322 -138q136 -139 136 -371t-137 -374t-356 -143q-219 0 -356 122q-136 122 -160 341l143 20q19 -162 109 -258t256 -96t259 102t93 286t-94 284t-269 100q-80 0 -143 -43l-70 90l418 561h-622v129h847v-39l-438 -581q20 8 62 8z" />
    <glyph glyph-name="four.tn" 
d="M823 477v916l-510 -916h510zM823 -25v373h-714v39l682 1208h176v-1118h215v-129h-215v-373h-144z" />
    <glyph glyph-name="five.tn" 
d="M657 86q174 0 264 111q89 111 89 313t-94 305q-94 104 -259 105q-205 0 -333 -218l-103 23l84 870h758v-129h-629l-57 -551q125 133 295 134q221 0 354 -147q131 -148 131 -397t-135 -399q-137 -149 -348 -149q-212 0 -338 111t-154 333l142 25q47 -340 333 -340z" />
    <glyph glyph-name="six.tn" 
d="M652 86q155 0 257 111q103 119 103 294t-98 283q-98 109 -259 109q-160 0 -258 -108t-98 -285t98 -293q100 -111 255 -111zM655 1012q221 0 363 -150t141 -378q0 -228 -142 -378q-141 -150 -361 -150t-365 150q-141 154 -141 379q0 145 86 297l479 832h151l-362 -641
q55 39 151 39z" />
    <glyph glyph-name="seven.tn" 
d="M215 1466v129h899v-47l-641 -1573h-151l620 1491h-727z" />
    <glyph glyph-name="eight.tn" 
d="M654 1485q-126 0 -206 -80t-80 -214t78 -212t208 -78t209 79t79 211t-81 213t-207 81zM655 86q154 0 246 91t92 248t-92 253t-246 95q-153 -1 -245 -93t-92 -252t91 -251q92 -91 246 -91zM1085 1192q0 -121 -57 -209t-145 -135q110 -40 183 -155q73 -114 75 -265
q0 -221 -142 -346q-137 -125 -343 -125t-349 125q-139 127 -139 349t158 356q47 40 102 61q-90 47 -146 135t-57 209q0 188 119 305q120 117 312 117t309 -119q120 -113 120 -303z" />
    <glyph glyph-name="nine.tn" 
d="M653 1485q-156 0 -255 -113t-99 -289t98 -286q98 -109 259 -109t259 109q97 109 97 284q0 176 -103 289q-100 115 -256 115zM655 559q-219 0 -364 150q-141 155 -141 379t142 375t363 151t363 -154q141 -143 141 -375q0 -155 -86 -297l-479 -831h-150l361 641
q-58 -39 -150 -39z" />
    <glyph glyph-name="edition" horiz-adv-x="5765" 
d="M5214 1493q-98 0 -154 -92t-56 -268t55 -269q57 -92 155 -92t152 92q59 88 59 268t-59 269q-54 92 -152 92zM5212 1606q237 0 314 -281q23 -84 22 -192q0 -215 -88 -345q-90 -129 -249 -129t-246 129t-87 340t88 345q88 133 246 133zM4289 1493q-99 0 -155 -92t-56 -268
t55 -269q57 -92 155 -92t152 92q59 88 59 268t-59 269q-53 92 -151 92zM4287 1606q158 0 247 -131q90 -138 89 -347q-1 -210 -89 -340q-90 -129 -248 -129t-246 129q-87 129 -87 340t88 345q88 133 246 133zM3363 1493q-99 0 -155 -92t-56 -268t55 -269q57 -92 155 -92
t152 92q59 88 59 268t-59 269q-53 92 -151 92zM3361 1606q158 0 248 -131q88 -135 88 -346t-88 -341q-90 -129 -249 -129t-246 129t-87 340t88 345q88 133 246 133zM1739 1011q0 -187 102 -327q111 -139 294 -139t289 138q106 139 105 329q0 190 -105 328q-104 138 -288 138
t-295 -137q-102 -143 -102 -330zM1587 1012q-1 240 149 421t397 181t397 -181t151 -421q0 -240 -152 -421q-151 -181 -397 -181t-393 182q-152 180 -152 420zM1661 -25v129h948v-129h-948zM1217 1595h153v-1620h-180l-803 1373v-1373h-154v1620h181l803 -1376v1376z" />
    </font>
</defs>
</svg>
